<svg width="26" height="22" viewBox="0 0 26 22" fill="none" xmlns="http://www.w3.org/2000/svg">
<path d="M5 7.66667V6C5 3.23858 7.23858 1 10 1H20C22.7614 1 25 3.23858 25 6V16C25 18.7614 22.7614 21 20 21H10C7.23858 21 5 18.7614 5 16V14.3333" stroke="white" stroke-width="2"/>
<path d="M19.7071 11.7071C20.0976 11.3166 20.0976 10.6834 19.7071 10.2929L13.3431 3.92893C12.9526 3.53841 12.3195 3.53841 11.9289 3.92893C11.5384 4.31946 11.5384 4.95262 11.9289 5.34315L17.5858 11L11.9289 16.6569C11.5384 17.0474 11.5384 17.6805 11.9289 18.0711C12.3195 18.4616 12.9526 18.4616 13.3431 18.0711L19.7071 11.7071ZM0 12H19V10H0V12Z" fill="white"/>
</svg>
