<svg width="220" height="54" viewBox="0 0 220 54" fill="none" xmlns="http://www.w3.org/2000/svg">
<path d="M136.305 0H136.183C134.722 0 134.478 0.374134 134.478 1.87067V31.4272C134.478 32.1755 134.356 32.3002 133.625 32.3002H129.849C129.118 32.3002 128.997 32.1755 128.997 31.4272V1.87067C128.997 0.374134 128.753 0 127.291 0H127.17C125.708 0 125.464 0.374134 125.464 1.87067V31.4272C125.464 32.1755 125.342 32.3002 124.612 32.3002H120.714C119.983 32.3002 119.861 32.1755 119.861 31.4272V1.87067C119.861 0.374134 119.617 0 118.156 0H118.034C116.572 0 116.328 0.374134 116.328 1.87067V33.9215C116.328 35.418 116.572 35.7921 118.034 35.7921H136.671C138.132 35.7921 138.376 35.418 138.376 33.9215V1.87067C138.011 0.374134 137.767 0 136.305 0Z" fill="#008CD5"/>
<path d="M171.022 0H168.707C164.444 0 162.129 2.74365 162.129 6.48499V29.1824C162.129 32.9238 164.444 35.6674 168.707 35.6674H171.022C175.285 35.6674 177.599 32.9238 177.599 29.1824V6.48499C177.599 2.74365 175.407 0 171.022 0ZM174.067 29.1824C174.067 31.3025 173.336 32.3002 171.143 32.3002H168.829C166.758 32.3002 165.906 31.3025 165.906 29.1824V6.48499C165.906 4.3649 166.636 3.3672 168.829 3.3672H171.143C173.214 3.3672 174.067 4.3649 174.067 6.48499V29.1824Z" fill="#008CD5"/>
<path d="M196.602 0.249146H187.709C186.491 0.249146 186.004 0.623279 185.882 2.11981C185.517 9.85191 185.273 14.4662 184.908 22.1983C184.664 27.6856 183.568 31.427 181.132 32.5494C179.792 33.1729 179.548 33.4223 180.035 34.6695L180.157 34.9189C180.644 36.0413 181.253 36.166 182.35 35.6671C186.735 34.0459 188.318 27.935 188.562 22.1983C188.928 15.2145 189.171 10.8496 189.415 4.48933C189.415 3.74106 189.658 3.61635 190.389 3.61635H193.8C194.531 3.61635 194.653 3.74106 194.653 4.48933V33.7965C194.653 35.293 194.896 35.6671 196.358 35.6671H196.48C197.941 35.6671 198.185 35.293 198.185 33.7965V2.11981C198.307 0.623279 198.063 0.249146 196.602 0.249146Z" fill="#008CD5"/>
<path d="M219.623 33.9215C218.771 23.1963 218.161 16.7113 217.309 5.98614C216.943 2.36951 214.629 0 211.34 0C208.051 0 205.615 2.36951 205.371 5.98614C204.519 16.7113 203.91 23.1963 203.057 33.9215C202.935 35.418 203.179 35.7921 204.641 35.7921H204.762C206.224 35.7921 206.59 35.418 206.711 33.9215C206.955 31.4272 207.077 29.3071 207.32 27.1871C207.442 26.4388 207.564 26.3141 208.295 26.3141H214.629C215.36 26.3141 215.482 26.4388 215.603 27.1871C215.725 29.3071 215.969 31.4272 216.213 33.9215C216.334 35.418 216.7 35.7921 218.162 35.7921H218.283C219.501 35.6674 219.745 35.418 219.623 33.9215ZM208.539 22.8222C207.808 22.8222 207.686 22.6975 207.686 21.9492C208.051 16.9607 208.539 12.2217 209.026 5.86143C209.148 4.36489 210.122 3.24249 211.34 3.24249C212.68 3.24249 213.533 4.24018 213.655 5.86143C214.142 12.097 214.507 16.836 214.994 21.9492C214.994 22.6975 214.873 22.8222 214.142 22.8222H208.539Z" fill="#008CD5"/>
<path d="M159.083 34.0462C155.551 23.9446 152.506 15.2148 152.506 15.2148L157.744 1.87067C158.231 0.623556 158.109 0.124712 156.404 0.124712H156.282C154.942 0.124712 154.455 0.498845 153.967 1.74596L148.973 14.5912C148.242 15.0901 147.512 15.7136 146.781 16.2125V1.87067C146.781 0.374134 146.537 0 145.075 0H144.954C143.492 0 143.248 0.374134 143.248 1.87067V33.9215C143.248 35.418 143.492 35.7921 144.954 35.7921H145.075C146.537 35.7921 146.781 35.418 146.781 33.9215V20.4526C147.877 19.7044 148.851 18.9561 149.948 18.2078C152.749 26.0647 152.14 24.6928 155.429 34.0462C155.916 35.418 156.404 35.7921 157.865 35.7921H157.987C159.327 35.6674 159.571 35.418 159.083 34.0462Z" fill="#008CD5"/>
<path d="M96.7171 0.249146H6.69955C1.2181 0.249146 0 1.37155 0 7.10827V47.0159C0 52.6279 1.09629 53.875 6.69955 53.875H96.7171C102.199 53.875 103.417 52.7526 103.417 47.0159V7.10827C103.295 1.49626 102.199 0.249146 96.7171 0.249146ZM25.0929 16.3369C25.0929 13.4685 25.7019 12.9697 28.3817 12.9697H37.3957C40.1973 12.9697 40.6845 13.5933 40.6845 16.3369V25.3161C40.6845 28.1845 40.0755 28.6833 37.3957 28.6833H28.3817C25.5801 28.6833 25.0929 28.0598 25.0929 25.3161V16.3369ZM6.21231 16.3369C6.21231 13.4685 6.82136 12.9697 9.50118 12.9697H18.5151C21.3167 12.9697 21.804 13.5933 21.804 16.3369V25.3161C21.804 28.1845 21.1949 28.6833 18.5151 28.6833H9.50118C6.69955 28.6833 6.21231 28.0598 6.21231 25.3161V16.3369ZM59.4433 44.1475C59.4433 47.0159 58.8342 47.5147 56.1544 47.5147H9.62299C6.82136 47.5147 6.33412 46.8912 6.33412 44.1475V35.1683C6.33412 32.2999 6.94317 31.8011 9.62299 31.8011H56.2762C59.0778 31.8011 59.5651 32.4247 59.5651 35.1683V44.1475H59.4433ZM59.4433 25.1914C59.4433 28.0598 58.8342 28.5586 56.1544 28.5586H47.1405C44.3388 28.5586 43.8516 27.935 43.8516 25.1914V16.2122C43.8516 13.3438 44.4606 12.845 47.1405 12.845H56.1544C58.956 12.845 59.4433 13.4685 59.4433 16.2122V25.1914ZM78.3238 44.1475C78.3238 47.0159 77.7148 47.5147 75.0349 47.5147H66.021C63.2194 47.5147 62.7321 46.8912 62.7321 44.1475V35.1683C62.7321 32.2999 63.3412 31.8011 66.021 31.8011H75.0349C77.8366 31.8011 78.3238 32.4247 78.3238 35.1683V44.1475ZM97.0825 44.1475C97.0825 47.0159 96.4735 47.5147 93.7937 47.5147H84.7797C81.9781 47.5147 81.4909 46.8912 81.4909 44.1475V35.1683C81.4909 32.2999 82.0999 31.8011 84.7797 31.8011H93.7937C96.5953 31.8011 97.0825 32.4247 97.0825 35.1683V44.1475ZM97.0825 25.1914C97.0825 28.0598 96.4735 28.5586 93.7937 28.5586H66.021C63.2194 28.5586 62.7321 27.935 62.7321 25.1914V16.2122C62.7321 13.3438 63.3412 12.845 66.021 12.845H93.7937C96.5953 12.845 97.0825 13.4685 97.0825 16.2122V25.1914Z" fill="#008CD5"/>
<path d="M134.722 39.7828H133.869C132.164 39.7828 131.311 40.9052 131.311 42.4018V51.381C131.311 52.8775 132.164 53.9999 133.869 53.9999H134.722C136.427 53.9999 137.28 52.8775 137.28 51.381V42.4018C137.28 40.9052 136.427 39.7828 134.722 39.7828ZM135.94 51.381C135.94 52.254 135.574 52.6281 134.843 52.6281H133.869C133.016 52.6281 132.773 52.254 132.773 51.381V42.4018C132.773 41.5288 133.138 41.1547 133.869 41.1547H134.843C135.696 41.1547 135.94 41.5288 135.94 42.4018V51.381Z" fill="#008CD5"/>
<path d="M121.201 39.9076H116.572C115.963 39.9076 115.841 40.0323 115.841 40.6559V53.2517C115.841 53.8753 115.963 54 116.572 54C117.181 54 117.303 53.8753 117.303 53.2517V41.6536C117.303 41.4041 117.425 41.2794 117.668 41.2794H120.105C120.348 41.2794 120.47 41.4041 120.47 41.6536V53.2517C120.47 53.8753 120.592 54 121.201 54C121.81 54 121.932 53.8753 121.932 53.2517V40.6559C121.932 40.0323 121.81 39.9076 121.201 39.9076Z" fill="#008CD5"/>
<path d="M144.223 39.9076H140.081C139.594 39.9076 139.472 40.0323 139.472 40.6559V53.2517C139.472 53.8753 139.594 54 140.203 54C140.812 54 140.934 53.8753 140.934 53.2517V41.6536C140.934 41.4041 141.056 41.2794 141.299 41.2794H144.345C144.832 41.2794 144.954 41.1547 144.954 40.6559C144.832 40.0323 144.71 39.9076 144.223 39.9076Z" fill="#008CD5"/>
<path d="M204.031 41.2795C204.519 41.2795 204.64 41.1547 204.64 40.6559C204.64 40.1571 204.519 40.0323 204.031 40.0323H198.55C198.063 40.0323 197.941 40.1571 197.941 40.6559C197.941 41.1547 198.063 41.2795 198.55 41.2795H200.255C200.499 41.2795 200.621 41.4042 200.621 41.6536V53.2517C200.621 53.8753 200.742 54 201.352 54C201.961 54 202.082 53.8753 202.082 53.2517V41.6536C202.082 41.4042 202.082 41.2795 202.448 41.2795H204.031Z" fill="#008CD5"/>
<path d="M209.026 39.7828H208.174C206.468 39.7828 205.616 40.9052 205.616 42.4018V51.381C205.616 52.8775 206.468 53.9999 208.174 53.9999H209.026C210.732 53.9999 211.584 52.8775 211.584 51.381V42.4018C211.584 40.9052 210.732 39.7828 209.026 39.7828ZM210.244 51.381C210.244 52.254 209.879 52.6281 209.148 52.6281H208.174C207.321 52.6281 207.077 52.254 207.077 51.381V42.4018C207.077 41.5288 207.443 41.1547 208.174 41.1547H209.148C210.001 41.1547 210.244 41.5288 210.244 42.4018V51.381Z" fill="#008CD5"/>
<path d="M195.627 42.4018C195.627 43.0253 195.748 43.15 196.358 43.15C196.967 43.15 197.088 43.0253 197.088 42.4018C197.088 40.9052 196.236 39.7828 194.53 39.7828H193.556C191.851 39.7828 190.998 40.9052 190.998 42.4018V51.381C190.998 52.8775 191.851 53.9999 193.556 53.9999H194.53C196.236 53.9999 197.088 52.8775 197.088 51.381V50.3833C197.088 49.7597 196.967 49.635 196.358 49.635C195.748 49.635 195.627 49.7597 195.627 50.3833V51.381C195.627 52.254 195.261 52.6281 194.53 52.6281H193.434C192.581 52.6281 192.338 52.254 192.338 51.381V42.4018C192.338 41.5288 192.703 41.1547 193.434 41.1547H194.53C195.261 41.1547 195.627 41.5288 195.627 42.4018Z" fill="#008CD5"/>
<path d="M126.926 39.9076H124.612C124.124 39.9076 124.003 40.0323 124.003 40.6559V53.2517C124.003 53.8753 124.124 54 124.733 54C125.342 54 125.464 53.8753 125.464 53.2517V49.261H127.048C128.753 49.261 129.606 48.1385 129.606 46.642V42.5265C129.484 40.9053 128.631 39.9076 126.926 39.9076ZM126.926 41.2794C127.779 41.2794 128.022 41.6536 128.022 42.5265V46.642C128.022 47.515 127.657 47.8891 126.926 47.8891H125.708C125.464 47.8891 125.342 47.7644 125.342 47.515V41.6536C125.342 41.4041 125.342 41.2794 125.708 41.2794H126.926Z" fill="#008CD5"/>
<path d="M179.182 39.7828C178.817 39.7828 178.573 40.0323 178.329 40.5311C177.111 42.7759 176.137 44.7713 176.137 44.7713L175.771 45.769L175.406 44.7713C175.406 44.7713 174.31 42.7759 173.213 40.5311C172.97 40.0323 172.604 39.7828 172.361 39.7828C171.873 39.7828 171.752 39.9075 171.752 40.5311V53.2517C171.752 53.8752 171.873 53.9999 172.483 53.9999C173.092 53.9999 173.213 53.8752 173.213 53.2517V46.5172L173.092 43.2748L173.457 44.2724C173.457 44.2724 174.188 45.6443 175.162 47.5149C175.284 47.6396 175.406 47.8891 175.771 47.8891C176.137 47.8891 176.259 47.7644 176.38 47.5149L178.086 44.2724L178.451 43.2748L178.329 46.5172V53.2517C178.329 53.8752 178.451 53.9999 179.06 53.9999C179.669 53.9999 179.791 53.8752 179.791 53.2517V40.5311C179.669 39.9075 179.547 39.7828 179.182 39.7828Z" fill="#008CD5"/>
<path d="M148.974 39.9076H146.659C146.172 39.9076 146.05 40.0323 146.05 40.6559V53.2517C146.05 53.8753 146.172 54 146.781 54C147.39 54 147.512 53.8753 147.512 53.2517V49.261H149.095C150.801 49.261 151.653 48.1385 151.653 46.642V42.5265C151.653 40.9053 150.679 39.9076 148.974 39.9076ZM148.974 41.2794C149.826 41.2794 150.07 41.6536 150.07 42.5265V46.642C150.07 47.515 149.705 47.8891 148.974 47.8891H147.756C147.512 47.8891 147.39 47.7644 147.39 47.515V41.6536C147.39 41.4041 147.39 41.2794 147.756 41.2794H148.974Z" fill="#008CD5"/>
<path d="M159.449 53.2517C159.084 49.0115 158.84 46.3925 158.597 42.1523C158.475 40.6558 157.5 39.7828 156.16 39.7828C154.821 39.7828 153.846 40.6558 153.724 42.1523C153.359 46.3925 153.115 49.0115 152.872 53.2517C152.872 53.8752 152.872 53.9999 153.481 53.9999C154.09 53.9999 154.211 53.8752 154.211 53.2517C154.333 52.254 154.333 51.381 154.455 50.6327C154.455 50.3833 154.577 50.2586 154.821 50.2586H157.257C157.5 50.2586 157.622 50.3833 157.622 50.6327C157.744 51.5057 157.744 52.3787 157.866 53.2517C157.866 53.8752 157.988 53.9999 158.597 53.9999C159.327 53.9999 159.449 53.8752 159.449 53.2517ZM155.064 48.8868C154.821 48.8868 154.699 48.762 154.699 48.5126C154.821 46.5172 155.064 44.6466 155.186 42.1523C155.186 41.5288 155.673 41.1547 156.16 41.1547C156.648 41.1547 157.013 41.5288 157.135 42.1523C157.379 44.6466 157.5 46.5172 157.622 48.5126C157.622 48.762 157.622 48.8868 157.257 48.8868H155.064Z" fill="#008CD5"/>
<path d="M188.196 39.7828C187.953 39.7828 187.587 39.9075 187.344 40.5311L183.811 48.5126L183.202 50.3833L183.324 46.7667V40.5311C183.324 39.9075 183.202 39.7828 182.593 39.7828C181.984 39.7828 181.862 39.9075 181.862 40.5311V53.2517C181.862 53.7505 181.984 53.9999 182.471 53.9999C182.715 53.9999 183.08 53.8752 183.324 53.2517L186.857 45.3948L187.466 43.5242L187.344 47.0161V53.2517C187.344 53.8752 187.466 53.9999 188.075 53.9999C188.684 53.9999 188.805 53.8752 188.805 53.2517V40.5311C188.684 39.9075 188.684 39.7828 188.196 39.7828Z" fill="#008CD5"/>
<path d="M218.771 45.8937C219.136 45.3948 219.38 44.896 219.38 44.1477V42.4018C219.38 40.9052 218.527 39.7828 216.822 39.7828H214.386C213.899 39.7828 213.777 39.9075 213.777 40.4064C213.777 40.4064 213.777 48.762 213.777 53.0022C213.777 53.5011 213.899 53.6258 214.386 53.6258H217.187C218.893 53.6258 219.745 52.5034 219.745 51.0068V47.7644C219.745 47.1408 219.38 46.3925 218.771 45.8937ZM215.117 41.6535C215.117 41.4041 215.117 41.2794 215.482 41.2794H216.7C217.553 41.2794 217.796 41.6535 217.796 42.5265V44.2724C217.796 45.1454 217.431 45.5196 216.7 45.5196H215.482C215.238 45.5196 215.117 45.3948 215.117 45.1454V41.6535ZM218.284 51.2563C218.284 52.1292 217.918 52.5034 217.187 52.5034H215.604C215.36 52.5034 215.238 52.3787 215.238 52.1292V47.1408C215.238 46.8914 215.238 46.7667 215.604 46.7667H217.187C218.04 46.7667 218.284 47.1408 218.284 48.0138V51.2563Z" fill="#008CD5"/>
<path d="M168.829 39.7828C168.463 39.7828 168.22 40.0323 167.976 40.5311C166.758 42.7759 165.783 44.7713 165.783 44.7713L165.418 45.769L165.053 44.7713C165.053 44.7713 163.956 42.7759 162.86 40.5311C162.616 40.0323 162.251 39.7828 162.007 39.7828C161.52 39.7828 161.398 39.9075 161.398 40.5311V53.2517C161.398 53.8752 161.52 53.9999 162.129 53.9999C162.738 53.9999 162.86 53.8752 162.86 53.2517V46.5172L162.738 43.2748L163.104 44.2724C163.104 44.2724 163.835 45.6443 164.809 47.5149C164.931 47.6396 165.053 47.8891 165.418 47.8891C165.783 47.8891 165.905 47.7644 166.027 47.5149L167.732 44.2724L168.098 43.2748L167.976 46.5172V53.2517C167.976 53.8752 168.098 53.9999 168.707 53.9999C169.316 53.9999 169.438 53.8752 169.438 53.2517V40.5311C169.438 39.9075 169.316 39.7828 168.829 39.7828Z" fill="#008CD5"/>
</svg>
