<svg id="svg" xmlns="http://www.w3.org/2000/svg" xmlns:xlink="http://www.w3.org/1999/xlink" width="400" height="98.26666666666667" viewBox="0, 0, 400,98.26666666666667" version="1.1"><g id="svgg"><path id="path0" d="M5.928 13.229 C 4.688 13.882,3.184 15.358,2.760 16.337 C 2.583 16.747,2.339 17.202,2.219 17.346 C 1.965 17.652,1.887 77.167,2.140 77.167 C 2.217 77.167,2.366 77.451,2.470 77.798 C 2.574 78.145,2.810 78.591,2.996 78.791 C 3.182 78.990,3.333 79.195,3.333 79.247 C 3.333 79.817,6.283 81.826,7.125 81.831 C 7.331 81.832,7.500 81.908,7.500 82.000 C 7.500 82.205,65.688 82.235,65.925 82.029 C 66.012 81.954,66.527 81.748,67.069 81.571 C 67.611 81.395,68.262 81.044,68.515 80.792 C 68.768 80.540,69.027 80.333,69.090 80.333 C 69.264 80.333,70.149 79.292,70.260 78.958 C 70.313 78.798,70.426 78.667,70.511 78.667 C 70.597 78.667,70.667 78.554,70.667 78.417 C 70.667 78.279,70.725 78.167,70.796 78.167 C 71.499 78.167,71.507 77.798,71.461 46.901 C 71.415 16.406,71.421 16.675,70.792 16.668 C 70.723 16.667,70.667 16.517,70.667 16.333 C 70.667 16.150,70.592 16.000,70.500 16.000 C 70.408 16.000,70.333 15.913,70.333 15.806 C 70.333 15.558,70.076 15.278,68.661 13.985 C 68.401 13.748,67.847 13.423,67.428 13.263 C 67.009 13.103,66.667 12.904,66.667 12.820 C 66.667 12.727,54.817 12.675,36.792 12.688 L 6.917 12.709 5.928 13.229 M27.138 25.061 C 28.898 25.995,28.750 30.446,26.930 31.327 C 25.927 31.813,23.405 31.812,22.401 31.326 C 20.286 30.302,20.536 25.673,22.750 24.859 C 23.531 24.571,26.470 24.707,27.138 25.061 M43.664 25.680 C 45.075 26.006,44.997 25.624,45.023 32.317 C 45.036 35.580,45.092 40.066,45.148 42.285 L 45.250 46.320 53.307 36.239 C 59.727 28.206,61.488 26.103,61.974 25.884 C 62.947 25.447,66.229 25.473,67.000 25.925 C 68.352 26.716,68.135 27.102,62.638 33.676 C 54.344 43.595,51.667 46.824,51.667 46.909 C 51.667 46.955,53.152 48.964,54.967 51.372 C 56.783 53.780,60.350 58.510,62.894 61.884 C 69.983 71.286,69.958 71.196,65.514 71.307 C 62.272 71.388,62.565 71.579,59.377 67.307 C 56.041 62.835,48.370 52.450,46.070 49.290 L 45.250 48.164 45.145 50.374 C 45.087 51.589,45.031 56.650,45.020 61.621 L 45.000 70.659 44.549 70.954 C 43.886 71.389,39.947 71.389,39.284 70.954 L 38.833 70.659 38.833 48.500 L 38.833 26.341 39.264 26.059 C 40.063 25.535,42.227 25.349,43.664 25.680 M27.316 38.067 L 27.667 38.385 27.667 54.500 L 27.667 70.615 27.316 70.933 C 26.629 71.555,22.641 71.474,21.991 70.824 C 21.610 70.443,21.469 39.015,21.844 38.313 C 22.237 37.579,26.563 37.385,27.316 38.067 " stroke="none" fill="#af04fc" fill-rule="evenodd"></path><path id="path1" d="M186.083 22.167 C 186.027 22.258,185.717 22.333,185.396 22.333 C 184.794 22.333,184.176 22.577,183.961 22.900 C 183.894 23.001,183.838 33.771,183.838 46.833 C 183.838 59.896,183.894 70.660,183.961 70.754 C 184.483 71.481,188.745 71.999,189.140 71.384 C 189.200 71.289,189.419 71.159,189.625 71.095 L 190.000 70.978 190.005 62.197 C 190.010 53.570,190.016 53.424,190.324 53.833 C 190.496 54.063,190.834 54.475,191.075 54.750 C 191.317 55.025,191.675 55.531,191.871 55.875 C 192.067 56.219,192.277 56.500,192.336 56.500 C 192.396 56.500,192.729 56.913,193.076 57.417 C 193.423 57.921,193.773 58.333,193.854 58.333 C 193.934 58.333,194.000 58.421,194.000 58.528 C 194.000 58.635,194.114 58.841,194.254 58.986 C 194.393 59.131,194.730 59.550,195.002 59.917 C 195.274 60.283,195.555 60.658,195.628 60.750 C 195.700 60.842,195.938 61.179,196.156 61.500 C 196.374 61.821,196.709 62.249,196.901 62.451 C 197.421 62.998,197.667 63.308,197.667 63.417 C 197.667 63.512,197.835 63.738,198.333 64.312 C 198.471 64.470,199.258 65.496,200.083 66.591 C 200.908 67.687,201.658 68.674,201.750 68.786 C 201.985 69.071,202.170 69.311,202.817 70.167 C 203.683 71.314,204.321 71.541,206.739 71.564 C 211.243 71.607,211.288 70.641,207.026 65.359 C 206.756 65.024,206.252 64.375,205.907 63.917 C 205.563 63.458,205.217 63.058,205.140 63.028 C 205.063 62.997,205.000 62.885,205.000 62.778 C 205.000 62.671,204.729 62.283,204.398 61.917 C 204.067 61.550,203.607 60.969,203.376 60.625 C 203.145 60.281,202.891 60.000,202.811 60.000 C 202.732 60.000,202.667 59.920,202.667 59.822 C 202.667 59.669,201.624 58.262,200.945 57.500 C 200.822 57.362,200.481 56.894,200.186 56.458 C 199.892 56.023,199.579 55.667,199.492 55.667 C 199.405 55.667,199.333 55.552,199.333 55.411 C 199.333 55.271,199.221 55.113,199.083 55.060 C 198.946 55.008,198.833 54.887,198.833 54.793 C 198.833 54.699,198.646 54.448,198.417 54.235 C 198.188 54.023,198.000 53.804,198.000 53.748 C 198.000 53.692,197.737 53.303,197.417 52.883 C 197.096 52.463,196.833 52.068,196.833 52.007 C 196.833 51.945,199.496 49.223,202.750 45.958 C 206.694 42.000,208.667 39.906,208.667 39.677 C 208.667 39.488,208.742 39.333,208.833 39.333 C 209.099 39.333,209.026 38.336,208.740 38.050 C 208.598 37.907,208.146 37.752,207.737 37.706 C 207.327 37.660,206.952 37.557,206.903 37.478 C 206.787 37.290,204.381 37.289,204.265 37.476 C 204.216 37.555,203.793 37.665,203.323 37.720 C 202.577 37.808,202.373 37.923,201.693 38.636 C 200.733 39.643,198.420 42.188,197.653 43.080 C 197.340 43.445,196.881 43.917,196.634 44.129 C 196.387 44.341,196.138 44.661,196.081 44.841 C 196.024 45.020,195.875 45.167,195.750 45.167 C 195.625 45.167,195.475 45.317,195.417 45.500 C 195.358 45.683,195.256 45.833,195.188 45.833 C 195.121 45.833,194.343 46.640,193.461 47.625 C 192.578 48.610,191.438 49.865,190.928 50.413 L 190.000 51.409 190.000 37.054 L 190.000 22.699 189.475 22.516 C 189.186 22.416,188.741 22.333,188.485 22.333 C 188.229 22.333,187.973 22.258,187.917 22.167 C 187.860 22.075,187.448 22.000,187.000 22.000 C 186.552 22.000,186.140 22.075,186.083 22.167 M281.939 22.130 C 281.885 22.218,281.502 22.327,281.087 22.374 C 280.673 22.421,280.221 22.553,280.083 22.667 C 279.862 22.851,279.837 25.684,279.874 46.882 L 279.917 70.888 280.500 71.221 C 281.401 71.735,284.494 71.707,285.375 71.177 L 286.000 70.800 286.000 59.565 L 286.000 48.330 286.452 47.790 C 287.352 46.714,290.205 44.020,290.721 43.758 C 291.012 43.611,291.362 43.423,291.500 43.339 C 293.015 42.421,296.039 42.129,296.904 42.816 C 297.002 42.895,297.271 43.013,297.500 43.080 C 298.862 43.473,300.540 46.233,300.773 48.464 C 300.833 49.039,300.946 49.550,301.024 49.598 C 301.103 49.647,301.167 54.363,301.167 60.080 C 301.167 65.796,301.212 70.592,301.268 70.737 C 301.751 71.995,306.947 71.849,307.268 70.569 C 307.881 68.130,307.065 44.286,306.354 43.846 C 306.265 43.791,306.137 43.522,306.069 43.248 C 305.915 42.630,305.209 41.314,304.898 41.065 C 304.771 40.963,304.667 40.822,304.667 40.751 C 304.667 40.557,303.236 39.167,303.036 39.167 C 302.940 39.167,302.836 39.100,302.806 39.018 C 302.733 38.824,301.045 37.834,300.784 37.832 C 300.674 37.832,300.369 37.720,300.108 37.583 C 298.763 36.882,292.500 36.817,292.500 37.504 C 292.500 37.579,292.256 37.689,291.958 37.749 C 291.360 37.869,289.449 38.810,289.361 39.028 C 289.331 39.104,289.197 39.167,289.064 39.167 C 288.931 39.167,288.780 39.279,288.727 39.417 C 288.674 39.554,288.552 39.667,288.455 39.667 C 288.358 39.667,287.766 40.122,287.139 40.679 L 286.000 41.692 286.000 32.303 L 286.000 22.914 285.625 22.676 C 284.957 22.254,282.122 21.834,281.939 22.130 M395.000 22.168 C 394.771 22.248,394.322 22.377,394.002 22.454 C 392.945 22.710,393.005 21.229,393.002 46.921 C 393.000 72.003,392.974 71.167,393.746 71.167 C 393.870 71.167,394.001 71.254,394.037 71.361 C 394.117 71.600,398.139 71.636,398.306 71.399 C 398.367 71.313,398.623 71.153,398.875 71.042 L 399.333 70.840 399.333 46.877 L 399.333 22.914 398.958 22.676 C 398.239 22.221,395.757 21.903,395.000 22.168 M227.667 24.992 C 227.529 25.085,226.872 25.163,226.206 25.164 C 225.540 25.166,224.865 25.235,224.706 25.318 C 224.547 25.401,223.760 25.642,222.958 25.854 C 222.156 26.067,221.500 26.299,221.500 26.370 C 221.500 26.442,221.355 26.500,221.179 26.500 C 221.002 26.500,220.754 26.603,220.629 26.728 C 220.503 26.854,220.146 27.088,219.836 27.249 C 217.897 28.251,215.669 31.374,215.073 33.927 C 214.503 36.366,214.906 41.263,215.745 42.102 C 215.885 42.242,216.000 42.470,216.000 42.607 C 216.000 43.236,218.448 46.081,219.747 46.962 C 220.115 47.212,220.516 47.510,220.637 47.625 C 220.758 47.740,220.964 47.833,221.095 47.833 C 221.226 47.833,221.333 47.894,221.333 47.968 C 221.333 48.042,221.877 48.361,222.542 48.676 C 223.206 48.992,223.849 49.344,223.970 49.458 C 224.091 49.573,224.329 49.667,224.498 49.667 C 224.667 49.667,224.831 49.723,224.861 49.792 C 224.892 49.860,225.404 50.150,226.000 50.436 C 228.916 51.833,229.948 52.308,230.292 52.411 C 230.498 52.472,230.667 52.589,230.667 52.670 C 230.667 52.751,230.926 52.941,231.242 53.091 C 231.559 53.241,231.906 53.470,232.013 53.599 C 232.120 53.728,232.275 53.833,232.358 53.833 C 232.518 53.833,233.992 55.347,233.997 55.516 C 233.999 55.571,234.150 55.789,234.333 56.000 C 234.517 56.211,234.667 56.508,234.667 56.659 C 234.667 56.810,234.760 57.026,234.873 57.140 C 235.388 57.654,234.969 62.045,234.362 62.497 C 234.298 62.545,233.984 62.975,233.665 63.454 C 233.345 63.933,232.996 64.327,232.889 64.329 C 232.782 64.331,232.669 64.400,232.639 64.482 C 232.554 64.710,230.856 65.667,230.534 65.668 C 230.378 65.668,230.025 65.799,229.750 65.958 C 229.123 66.320,223.561 66.396,223.142 66.049 C 223.009 65.938,222.566 65.797,222.158 65.735 C 221.750 65.672,221.342 65.567,221.250 65.501 C 221.158 65.435,220.577 65.202,219.958 64.983 C 219.340 64.765,218.833 64.529,218.833 64.460 C 218.833 64.390,218.683 64.333,218.500 64.333 C 218.317 64.333,218.035 64.216,217.875 64.073 C 217.364 63.617,216.409 63.055,215.947 62.939 C 215.701 62.877,215.500 62.753,215.500 62.663 C 215.500 62.574,215.275 62.500,215.000 62.500 C 214.725 62.500,214.500 62.575,214.500 62.667 C 214.500 62.758,214.387 62.833,214.250 62.833 C 214.112 62.833,214.000 62.977,214.000 63.153 C 214.000 63.328,213.916 63.500,213.813 63.535 C 213.689 63.576,213.625 64.217,213.625 65.417 C 213.625 66.616,213.689 67.257,213.813 67.299 C 213.916 67.333,214.000 67.506,214.000 67.683 C 214.000 68.087,214.916 68.979,215.770 69.408 C 216.126 69.587,216.529 69.818,216.667 69.922 C 216.804 70.025,217.292 70.241,217.750 70.401 C 218.208 70.562,218.733 70.757,218.917 70.837 C 219.100 70.916,219.588 71.032,220.000 71.094 C 220.412 71.157,220.789 71.268,220.836 71.342 C 221.324 72.106,231.667 72.094,231.667 71.330 C 231.667 71.264,231.970 71.161,232.341 71.102 C 232.711 71.042,233.143 70.928,233.299 70.847 C 233.455 70.767,233.921 70.567,234.333 70.403 C 234.746 70.238,235.202 70.006,235.346 69.885 C 235.491 69.765,235.697 69.667,235.805 69.667 C 235.912 69.667,236.000 69.610,236.000 69.541 C 236.000 69.471,236.224 69.315,236.498 69.194 C 237.008 68.968,239.333 66.786,239.333 66.534 C 239.333 66.456,239.558 66.141,239.833 65.833 C 240.108 65.525,240.333 65.208,240.333 65.127 C 240.333 65.047,240.558 64.528,240.833 63.974 C 241.108 63.419,241.333 62.717,241.333 62.413 C 241.333 62.110,241.407 61.836,241.497 61.806 C 241.988 61.639,242.014 55.333,241.524 55.009 C 241.448 54.958,241.338 54.623,241.282 54.263 C 241.225 53.904,241.114 53.567,241.036 53.513 C 240.958 53.460,240.728 53.069,240.525 52.645 C 240.125 51.807,238.590 49.950,238.225 49.863 C 238.101 49.833,238.000 49.721,238.000 49.613 C 237.999 49.505,237.774 49.267,237.500 49.083 C 237.226 48.900,237.001 48.694,237.000 48.625 C 237.000 48.556,236.924 48.500,236.832 48.500 C 236.739 48.500,236.353 48.275,235.974 48.000 C 235.594 47.725,235.188 47.500,235.072 47.500 C 234.956 47.500,234.836 47.442,234.806 47.371 C 234.713 47.156,230.667 45.167,230.322 45.167 C 230.145 45.167,230.000 45.106,230.000 45.032 C 230.000 44.905,227.841 43.833,227.586 43.833 C 227.521 43.833,227.269 43.693,227.026 43.521 C 226.782 43.349,226.190 43.004,225.708 42.754 C 225.227 42.503,224.833 42.236,224.833 42.160 C 224.833 42.085,224.693 41.978,224.522 41.924 C 224.151 41.806,222.667 40.434,222.667 40.209 C 222.667 40.122,222.516 39.915,222.332 39.748 C 221.914 39.371,221.332 37.531,221.337 36.607 C 221.352 34.165,222.497 32.324,224.621 31.330 C 225.242 31.039,225.880 30.733,226.039 30.650 C 226.402 30.462,231.167 30.450,231.167 30.638 C 231.167 30.714,231.560 30.867,232.042 30.977 C 233.204 31.245,236.018 32.547,237.192 33.360 C 238.619 34.348,239.333 33.477,239.333 30.750 C 239.333 28.314,238.455 27.070,236.378 26.562 C 236.124 26.499,235.877 26.389,235.828 26.315 C 235.780 26.242,235.067 26.021,234.245 25.823 C 233.423 25.626,232.600 25.400,232.417 25.321 C 232.233 25.242,231.521 25.141,230.833 25.096 C 230.146 25.051,229.208 24.971,228.750 24.919 C 228.289 24.866,227.805 24.899,227.667 24.992 M22.548 25.272 C 21.407 25.834,20.847 28.641,21.582 30.114 C 22.525 32.004,26.809 32.004,27.751 30.114 C 28.014 29.587,28.119 26.333,27.873 26.333 C 27.803 26.333,27.672 26.165,27.581 25.958 C 27.179 25.041,23.918 24.596,22.548 25.272 M39.708 26.124 L 39.167 26.394 39.167 48.534 L 39.167 70.675 39.562 70.825 C 40.848 71.314,44.200 71.135,44.625 70.554 C 44.787 70.333,44.833 67.746,44.833 58.968 C 44.833 49.033,44.864 47.667,45.083 47.667 C 45.221 47.667,45.333 47.727,45.333 47.801 C 45.333 47.907,48.857 52.706,49.457 53.417 C 49.534 53.508,49.853 53.958,50.166 54.417 C 50.478 54.875,50.832 55.349,50.951 55.471 C 51.070 55.592,51.406 56.042,51.698 56.471 C 51.989 56.899,52.274 57.288,52.331 57.333 C 52.388 57.379,52.692 57.791,53.009 58.248 C 53.325 58.705,53.658 59.165,53.750 59.271 C 53.842 59.377,54.043 59.640,54.198 59.857 C 54.353 60.073,55.425 61.525,56.579 63.083 C 57.733 64.642,58.806 66.095,58.964 66.314 C 62.420 71.113,62.385 71.086,65.165 71.074 C 69.137 71.056,69.190 70.618,65.755 66.167 C 65.013 65.204,63.940 63.779,63.371 63.000 C 62.493 61.798,60.312 58.893,58.928 57.083 C 58.717 56.808,57.617 55.346,56.483 53.833 C 55.349 52.321,54.364 51.058,54.294 51.028 C 54.224 50.997,54.167 50.872,54.167 50.750 C 54.167 50.628,54.110 50.503,54.042 50.472 C 53.845 50.385,51.333 47.043,51.333 46.869 C 51.333 46.784,51.620 46.384,51.970 45.982 C 52.575 45.288,55.504 41.798,58.392 38.333 C 59.118 37.462,59.995 36.412,60.342 36.000 C 68.153 26.714,68.117 26.769,66.744 26.114 C 65.929 25.725,63.010 25.740,62.136 26.137 C 61.558 26.400,60.825 27.260,55.938 33.406 C 55.651 33.766,54.591 35.079,53.583 36.322 C 52.574 37.566,51.345 39.108,50.852 39.750 C 50.358 40.392,49.815 41.067,49.646 41.250 C 49.198 41.733,46.211 45.474,45.692 46.202 C 44.815 47.430,44.833 47.630,44.833 36.847 C 44.833 31.354,44.787 26.739,44.730 26.591 C 44.444 25.846,40.925 25.519,39.708 26.124 M125.583 37.171 C 125.217 37.245,124.692 37.424,124.417 37.568 C 124.142 37.713,123.754 37.832,123.556 37.832 C 123.357 37.833,123.169 37.890,123.139 37.958 C 123.108 38.027,122.746 38.252,122.333 38.457 C 121.546 38.850,120.974 39.188,120.833 39.341 C 120.787 39.392,120.497 39.610,120.187 39.826 C 119.877 40.043,119.110 40.718,118.483 41.327 L 117.342 42.434 117.296 40.179 L 117.250 37.924 116.750 37.776 C 116.475 37.694,116.120 37.561,115.961 37.480 C 115.586 37.290,113.748 37.290,113.373 37.480 C 113.214 37.561,112.858 37.694,112.583 37.776 L 112.083 37.925 112.041 54.424 L 111.998 70.923 112.592 71.243 C 113.491 71.727,116.763 71.692,117.467 71.190 C 118.174 70.686,118.167 70.822,118.167 59.005 L 118.167 48.218 118.708 47.643 C 119.006 47.327,119.516 46.772,119.842 46.409 C 120.728 45.423,122.014 44.288,122.757 43.836 C 123.120 43.615,123.455 43.380,123.502 43.314 C 123.548 43.247,123.811 43.138,124.085 43.071 C 124.359 43.004,124.623 42.890,124.670 42.817 C 125.486 41.589,131.500 43.300,131.500 44.760 C 131.500 44.872,131.612 45.008,131.750 45.060 C 131.887 45.113,132.000 45.269,132.000 45.406 C 132.000 45.544,132.158 45.959,132.351 46.330 C 133.064 47.698,133.164 49.392,133.168 60.167 C 133.171 70.871,133.174 70.928,133.726 71.100 C 133.923 71.162,134.131 71.286,134.190 71.377 C 134.384 71.680,138.271 71.586,138.586 71.272 C 138.735 71.122,138.956 71.000,139.077 71.000 C 139.482 71.000,139.500 70.525,139.499 60.111 C 139.499 50.407,139.349 46.053,139.007 45.835 C 138.934 45.788,138.823 45.413,138.761 45.000 C 138.699 44.587,138.581 44.100,138.499 43.917 C 138.418 43.733,138.188 43.190,137.988 42.708 C 137.789 42.227,137.560 41.833,137.479 41.833 C 137.399 41.833,137.333 41.758,137.333 41.665 C 137.333 41.396,136.375 40.148,135.809 39.679 C 135.523 39.443,135.093 39.081,134.853 38.875 C 134.613 38.669,134.353 38.500,134.276 38.500 C 134.198 38.500,133.933 38.356,133.687 38.181 C 133.440 38.006,132.960 37.810,132.619 37.746 C 132.279 37.682,132.000 37.574,132.000 37.506 C 132.000 37.106,127.158 36.854,125.583 37.171 M157.675 37.195 C 157.083 37.279,156.521 37.411,156.425 37.489 C 156.329 37.566,155.912 37.679,155.500 37.741 C 155.087 37.802,154.600 37.920,154.417 38.004 C 154.233 38.087,153.633 38.308,153.083 38.496 C 152.533 38.684,152.058 38.911,152.028 39.002 C 151.997 39.092,151.791 39.167,151.569 39.167 C 151.348 39.167,151.167 39.242,151.167 39.333 C 151.167 39.425,151.054 39.500,150.917 39.500 C 150.779 39.500,150.667 39.557,150.667 39.626 C 150.667 39.695,150.453 39.847,150.191 39.962 C 149.922 40.082,149.586 40.443,149.417 40.795 C 149.252 41.137,149.054 41.547,148.975 41.706 C 148.789 42.085,148.792 43.621,148.978 43.737 C 149.058 43.786,149.171 44.065,149.229 44.356 C 149.457 45.492,151.220 45.697,152.000 44.678 C 152.113 44.531,154.307 43.500,154.507 43.500 C 154.595 43.500,154.667 43.425,154.667 43.333 C 154.667 43.242,154.792 43.167,154.946 43.167 C 155.099 43.167,155.793 42.969,156.487 42.727 C 157.492 42.377,158.159 42.271,159.750 42.208 C 165.519 41.982,167.500 44.015,167.500 50.162 L 167.500 51.633 162.625 51.695 C 159.531 51.734,157.628 51.823,157.417 51.939 C 157.233 52.039,156.426 52.278,155.622 52.471 C 152.006 53.335,148.935 55.738,148.075 58.375 C 147.918 58.856,147.705 59.355,147.603 59.484 C 147.345 59.807,147.353 64.318,147.612 64.849 C 147.720 65.070,147.940 65.625,148.102 66.083 C 148.503 67.216,148.799 67.680,149.978 69.026 C 150.286 69.378,150.635 69.667,150.752 69.667 C 150.869 69.667,151.003 69.767,151.050 69.889 C 151.138 70.119,152.601 70.892,153.333 71.096 C 153.563 71.159,153.787 71.268,153.833 71.337 C 154.391 72.174,161.125 72.120,162.750 71.265 C 163.025 71.120,163.338 71.002,163.445 71.001 C 163.694 71.000,165.590 69.973,166.015 69.609 C 166.192 69.458,166.373 69.333,166.417 69.333 C 166.536 69.333,167.150 68.819,167.776 68.194 L 168.333 67.638 168.333 69.224 L 168.333 70.811 168.863 71.188 C 169.430 71.592,172.546 71.765,172.803 71.408 C 172.866 71.321,173.067 71.167,173.250 71.065 C 174.011 70.643,173.781 44.988,173.003 43.526 C 172.922 43.374,172.628 42.762,172.350 42.167 C 171.772 40.929,170.199 39.167,169.674 39.167 C 169.578 39.167,169.500 39.092,169.500 39.000 C 169.500 38.793,167.501 37.834,167.067 37.832 C 166.893 37.832,166.543 37.723,166.289 37.591 C 165.244 37.046,160.307 36.819,157.675 37.195 M259.172 37.195 C 258.579 37.280,258.051 37.417,258.000 37.500 C 257.949 37.583,257.571 37.704,257.162 37.770 C 256.430 37.886,254.093 38.968,253.451 39.486 C 252.604 40.170,250.390 42.490,250.167 42.927 C 250.029 43.196,249.753 43.664,249.553 43.965 C 249.353 44.267,249.063 44.904,248.909 45.382 C 248.755 45.859,248.536 46.400,248.421 46.583 C 247.528 48.019,246.979 55.314,247.488 59.000 C 247.731 60.764,248.205 62.833,248.365 62.833 C 248.439 62.833,248.500 62.938,248.500 63.066 C 248.500 63.401,249.511 65.740,249.685 65.805 C 249.765 65.835,249.958 66.130,250.115 66.460 C 250.456 67.177,252.886 69.667,253.246 69.667 C 253.386 69.667,253.500 69.733,253.500 69.814 C 253.500 69.995,255.398 70.941,256.083 71.101 C 256.358 71.165,256.621 71.266,256.667 71.326 C 257.331 72.186,264.772 72.121,266.459 71.241 C 266.711 71.109,267.035 71.002,267.179 71.001 C 267.323 71.000,267.905 70.775,268.473 70.500 C 269.041 70.225,269.579 70.000,269.669 70.000 C 269.760 70.000,269.833 69.925,269.833 69.833 C 269.833 69.742,269.946 69.667,270.083 69.667 C 270.221 69.667,270.333 69.597,270.333 69.511 C 270.333 69.426,270.471 69.312,270.640 69.259 C 271.003 69.143,272.000 68.280,272.000 68.082 C 272.000 68.005,272.105 67.825,272.233 67.680 C 272.466 67.417,272.574 66.171,272.525 64.318 C 272.495 63.204,272.016 62.500,271.286 62.500 C 271.037 62.500,270.833 62.570,270.833 62.655 C 270.833 62.741,270.665 62.864,270.458 62.928 C 270.252 62.992,270.046 63.091,270.000 63.148 C 269.776 63.424,268.001 64.678,267.375 65.001 C 266.985 65.202,266.667 65.425,266.667 65.496 C 266.667 65.566,266.367 65.672,266.000 65.731 C 265.633 65.789,265.333 65.899,265.333 65.973 C 265.333 66.210,263.690 66.500,262.348 66.500 C 260.965 66.500,259.167 66.209,259.167 65.985 C 259.167 65.910,258.904 65.799,258.583 65.739 C 258.262 65.679,257.999 65.582,257.999 65.523 C 257.998 65.465,257.717 65.229,257.374 65.000 C 256.616 64.494,256.333 64.236,256.333 64.049 C 256.333 63.971,256.115 63.668,255.848 63.376 C 255.581 63.084,255.312 62.617,255.251 62.339 C 255.190 62.061,255.080 61.833,255.006 61.833 C 254.869 61.833,254.816 61.688,254.425 60.250 C 253.449 56.652,253.878 47.167,255.017 47.167 C 255.085 47.167,255.193 46.923,255.258 46.625 C 255.322 46.327,255.422 46.046,255.479 46.000 C 255.537 45.954,255.844 45.579,256.162 45.167 C 256.481 44.754,256.930 44.267,257.160 44.083 C 257.391 43.900,257.712 43.619,257.873 43.458 C 258.035 43.298,258.249 43.167,258.350 43.167 C 258.451 43.167,258.769 43.059,259.058 42.927 C 260.657 42.199,265.333 42.152,265.333 42.865 C 265.333 42.937,265.633 43.044,266.000 43.103 C 266.367 43.161,266.667 43.270,266.667 43.343 C 266.667 43.417,266.816 43.525,266.998 43.583 C 267.180 43.640,268.009 44.176,268.840 44.772 C 271.053 46.361,271.885 46.326,272.346 44.624 C 272.567 43.805,272.464 41.731,272.188 41.455 C 272.085 41.351,272.000 41.150,272.000 41.008 C 272.000 40.866,271.706 40.487,271.346 40.167 C 270.386 39.309,270.198 39.167,270.021 39.167 C 269.933 39.167,269.836 39.108,269.806 39.036 C 269.698 38.781,267.574 37.857,266.833 37.742 C 266.421 37.678,266.043 37.562,265.993 37.484 C 265.725 37.064,261.377 36.880,259.172 37.195 M328.008 37.195 C 327.417 37.279,326.850 37.417,326.750 37.500 C 326.649 37.584,326.233 37.703,325.825 37.765 C 325.417 37.828,325.008 37.937,324.916 38.009 C 324.824 38.080,324.338 38.301,323.836 38.499 C 322.295 39.106,319.693 41.207,318.673 42.667 C 318.449 42.987,318.220 43.288,318.165 43.333 C 318.109 43.379,317.805 43.942,317.490 44.583 C 317.175 45.225,316.860 45.775,316.792 45.806 C 316.723 45.836,316.667 46.012,316.667 46.197 C 316.667 46.382,316.558 46.769,316.425 47.058 C 315.087 49.969,315.016 61.686,316.331 62.499 C 316.410 62.547,316.526 62.811,316.590 63.085 C 316.702 63.563,317.477 65.243,317.887 65.895 C 318.709 67.203,321.279 69.667,321.822 69.667 C 321.920 69.667,322.000 69.735,322.000 69.818 C 322.000 69.994,324.087 71.000,324.452 71.000 C 324.588 71.000,324.936 71.107,325.225 71.237 C 327.194 72.127,334.997 72.211,336.065 71.353 C 336.167 71.272,336.502 71.151,336.810 71.085 C 337.471 70.944,339.559 69.997,339.639 69.802 C 339.669 69.728,339.801 69.667,339.931 69.667 C 340.060 69.667,340.167 69.592,340.167 69.500 C 340.167 69.408,340.283 69.333,340.425 69.333 C 340.851 69.333,344.039 65.991,344.487 65.075 C 344.708 64.621,344.937 64.212,344.994 64.167 C 345.164 64.031,345.946 62.126,346.077 61.528 C 346.144 61.225,346.303 60.776,346.431 60.530 C 346.560 60.285,346.665 59.696,346.666 59.222 C 346.666 58.682,346.744 58.335,346.875 58.292 C 347.155 58.198,347.179 50.049,346.899 49.869 C 346.798 49.804,346.676 49.258,346.629 48.658 C 346.582 48.057,346.465 47.419,346.370 47.241 C 346.274 47.063,345.997 46.344,345.754 45.643 C 345.180 43.986,342.825 40.500,342.280 40.500 C 342.229 40.500,341.951 40.284,341.662 40.020 C 341.373 39.756,340.937 39.437,340.693 39.312 C 340.449 39.186,340.212 39.036,340.167 38.977 C 339.968 38.723,337.851 37.854,337.167 37.745 C 336.754 37.679,336.379 37.567,336.332 37.494 C 336.057 37.063,330.366 36.858,328.008 37.195 M365.838 37.195 C 365.245 37.280,364.720 37.413,364.672 37.492 C 364.623 37.570,364.222 37.688,363.780 37.754 C 363.338 37.821,362.626 38.043,362.197 38.248 C 361.768 38.454,361.248 38.675,361.042 38.739 C 360.835 38.803,360.667 38.926,360.667 39.011 C 360.667 39.097,360.595 39.167,360.508 39.167 C 360.262 39.167,358.833 40.172,358.833 40.345 C 358.833 40.430,358.739 40.500,358.623 40.500 C 358.248 40.500,356.344 42.663,355.871 43.625 C 355.725 43.923,355.544 44.167,355.469 44.167 C 355.394 44.167,355.333 44.292,355.333 44.445 C 355.333 44.598,355.231 44.842,355.107 44.987 C 354.813 45.328,354.051 47.391,353.901 48.250 C 353.837 48.617,353.728 48.954,353.658 49.001 C 352.889 49.506,352.892 59.097,353.661 60.750 C 353.747 60.933,353.934 61.562,354.077 62.148 C 354.740 64.854,357.308 68.494,359.264 69.500 C 359.531 69.637,359.787 69.797,359.833 69.856 C 360.007 70.079,362.110 70.981,362.708 71.090 C 363.052 71.153,363.333 71.260,363.333 71.328 C 363.333 72.084,372.913 72.086,373.917 71.331 C 374.008 71.262,374.343 71.149,374.661 71.081 C 374.979 71.013,375.354 70.896,375.495 70.820 C 375.635 70.744,376.087 70.527,376.500 70.337 C 377.313 69.963,377.551 69.825,378.625 69.100 C 379.015 68.837,379.333 68.557,379.333 68.478 C 379.333 68.398,379.416 68.333,379.516 68.333 C 379.722 68.333,380.401 67.639,381.204 66.608 C 381.499 66.228,381.781 65.879,381.829 65.833 C 382.031 65.641,382.378 65.009,382.928 63.833 C 383.250 63.146,383.577 62.465,383.656 62.321 C 384.127 61.460,384.593 59.078,384.975 55.579 C 385.247 53.093,384.283 46.147,383.627 45.861 C 383.557 45.831,383.500 45.697,383.500 45.565 C 383.500 44.714,380.661 40.500,380.088 40.500 C 380.031 40.500,379.810 40.313,379.598 40.083 C 379.386 39.854,379.124 39.667,379.017 39.667 C 378.910 39.667,378.780 39.554,378.727 39.417 C 378.674 39.279,378.497 39.167,378.333 39.167 C 378.170 39.167,377.998 39.069,377.952 38.950 C 377.907 38.831,377.449 38.590,376.935 38.415 C 376.421 38.241,376.000 38.048,376.000 37.987 C 376.000 37.926,375.608 37.824,375.128 37.761 C 374.649 37.697,374.216 37.579,374.166 37.499 C 373.900 37.068,368.190 36.859,365.838 37.195 M75.917 37.500 C 75.860 37.592,75.572 37.667,75.277 37.667 C 74.982 37.667,74.574 37.783,74.370 37.926 L 74.000 38.186 74.000 49.016 C 74.000 59.361,74.125 62.846,74.512 63.242 C 74.597 63.329,74.667 63.652,74.667 63.959 C 74.667 64.667,75.752 67.145,76.439 68.008 C 77.062 68.790,77.952 69.667,78.123 69.667 C 78.219 69.667,78.335 69.764,78.381 69.884 C 78.467 70.109,80.061 71.000,80.377 71.000 C 80.476 71.000,80.675 71.106,80.820 71.237 C 81.777 72.097,89.333 72.174,89.333 71.324 C 89.333 71.252,89.572 71.141,89.863 71.077 C 90.486 70.940,91.837 70.229,92.102 69.898 C 92.203 69.771,92.372 69.667,92.477 69.667 C 92.581 69.667,92.667 69.592,92.667 69.500 C 92.667 69.408,92.760 69.332,92.875 69.329 C 93.073 69.326,93.672 68.836,95.027 67.570 C 95.852 66.799,95.833 66.772,95.833 68.736 C 95.833 69.691,95.879 70.592,95.935 70.737 C 96.258 71.581,99.633 71.929,100.895 71.250 L 101.500 70.924 101.497 54.587 C 101.495 37.017,101.543 37.852,100.520 37.715 C 100.138 37.664,99.785 37.557,99.736 37.478 C 99.616 37.283,97.569 37.294,97.206 37.491 C 97.047 37.578,96.636 37.693,96.294 37.748 C 95.304 37.906,95.333 37.552,95.333 49.550 L 95.333 60.622 94.958 61.101 C 94.297 61.946,91.824 64.320,91.024 64.877 C 90.598 65.174,90.225 65.473,90.194 65.542 C 90.164 65.610,90.000 65.667,89.831 65.667 C 89.662 65.667,89.415 65.776,89.281 65.909 C 87.549 67.641,81.333 65.469,81.333 63.133 C 81.333 62.968,81.271 62.833,81.194 62.833 C 80.550 62.833,80.418 60.699,80.365 49.417 C 80.307 37.107,80.389 37.855,79.092 37.709 C 78.675 37.662,78.333 37.558,78.333 37.478 C 78.333 37.275,76.043 37.296,75.917 37.500 M23.000 37.944 C 21.923 38.167,22.000 36.895,22.003 54.484 C 22.004 63.247,22.063 70.508,22.134 70.619 C 22.479 71.162,26.089 71.321,27.001 70.833 C 27.329 70.657,27.333 70.461,27.333 54.500 L 27.333 38.345 26.960 38.145 C 26.572 37.938,23.730 37.794,23.000 37.944 M333.744 42.522 C 334.290 42.618,334.888 42.803,335.072 42.932 C 335.257 43.061,335.541 43.167,335.704 43.167 C 335.867 43.167,336.000 43.225,336.000 43.295 C 336.000 43.366,336.264 43.566,336.587 43.740 C 337.811 44.400,339.614 47.049,339.996 48.750 C 340.078 49.117,340.241 49.754,340.357 50.167 C 340.498 50.665,340.569 52.089,340.569 54.417 C 340.569 56.744,340.498 58.168,340.357 58.667 C 340.241 59.079,340.075 59.750,339.988 60.157 C 339.902 60.565,339.775 60.940,339.707 60.991 C 339.639 61.042,339.384 61.496,339.140 62.000 C 338.497 63.331,337.017 65.033,336.306 65.259 C 336.138 65.312,336.000 65.426,336.000 65.511 C 336.000 65.597,335.868 65.667,335.706 65.667 C 335.544 65.667,335.134 65.816,334.794 65.998 C 333.163 66.872,328.109 66.798,327.196 65.887 C 327.075 65.766,326.839 65.667,326.672 65.667 C 326.031 65.667,323.333 62.970,323.333 62.330 C 323.333 62.159,323.254 61.970,323.156 61.910 C 321.990 61.189,321.398 52.554,322.300 49.417 C 323.083 46.695,325.347 43.500,326.493 43.500 C 326.589 43.500,326.667 43.431,326.667 43.347 C 326.667 43.262,326.892 43.144,327.168 43.083 C 327.444 43.022,327.890 42.863,328.158 42.729 C 329.116 42.251,331.672 42.157,333.744 42.522 M371.542 42.516 C 372.160 42.616,372.667 42.759,372.667 42.835 C 372.667 42.911,372.904 43.026,373.194 43.089 C 373.485 43.153,373.803 43.273,373.903 43.355 C 374.002 43.438,374.434 43.765,374.862 44.084 C 375.290 44.402,375.812 44.907,376.021 45.206 C 376.230 45.505,376.442 45.788,376.492 45.833 C 376.927 46.231,377.912 48.869,378.094 50.124 C 378.157 50.560,378.291 51.020,378.392 51.146 C 378.641 51.457,378.643 57.373,378.394 57.688 C 378.294 57.814,378.162 58.254,378.102 58.667 C 377.959 59.634,377.180 62.000,377.004 62.000 C 376.930 62.000,376.820 62.198,376.759 62.441 C 376.561 63.230,374.044 65.557,373.185 65.746 C 372.900 65.809,372.667 65.913,372.667 65.979 C 372.667 66.802,366.880 66.811,365.287 65.991 C 364.940 65.813,364.546 65.667,364.412 65.667 C 364.277 65.667,364.167 65.597,364.167 65.511 C 364.167 65.426,364.010 65.306,363.819 65.245 C 363.296 65.079,361.592 63.259,361.250 62.500 C 361.085 62.133,360.886 61.833,360.808 61.833 C 360.730 61.833,360.667 61.679,360.667 61.491 C 360.667 61.302,360.524 60.834,360.350 60.449 C 359.297 58.126,359.340 50.624,360.418 48.557 C 360.553 48.296,360.665 47.915,360.666 47.708 C 360.666 47.502,360.730 47.333,360.808 47.333 C 360.886 47.333,361.086 47.030,361.253 46.659 C 361.421 46.288,361.697 45.819,361.867 45.617 C 362.675 44.661,363.569 43.845,364.012 43.662 C 364.280 43.551,364.500 43.402,364.500 43.332 C 364.500 43.261,364.762 43.155,365.083 43.094 C 365.404 43.034,365.667 42.920,365.667 42.841 C 365.667 42.762,366.173 42.614,366.792 42.513 C 368.738 42.194,369.533 42.194,371.542 42.516 M167.500 59.320 L 167.500 62.473 166.375 63.586 C 165.756 64.198,164.837 64.970,164.333 65.302 C 163.829 65.634,163.379 65.957,163.333 66.020 C 162.754 66.818,158.518 67.199,156.895 66.598 C 156.077 66.296,154.667 65.190,154.667 64.852 C 154.667 64.763,154.568 64.591,154.447 64.470 C 153.697 63.717,153.622 59.500,154.360 59.500 C 154.437 59.500,154.500 59.402,154.500 59.283 C 154.500 59.002,155.783 57.705,156.188 57.576 C 156.360 57.522,156.500 57.414,156.500 57.335 C 156.500 57.257,156.744 57.141,157.042 57.077 C 157.340 57.014,157.658 56.902,157.750 56.830 C 157.896 56.715,159.036 56.469,160.333 56.275 C 160.563 56.240,162.269 56.202,164.125 56.189 L 167.500 56.167 167.500 59.320 " stroke="none" fill="#fcfbfc" fill-rule="evenodd"></path><path id="path2" d="M24.125 24.787 C 24.423 24.824,24.910 24.824,25.208 24.787 C 25.506 24.750,25.262 24.720,24.667 24.720 C 24.071 24.720,23.827 24.750,24.125 24.787 M44.904 29.917 C 44.904 31.842,44.928 32.606,44.958 31.616 C 44.987 30.626,44.987 29.051,44.958 28.116 C 44.928 27.181,44.904 27.992,44.904 29.917 M38.914 48.500 C 38.914 60.462,38.934 65.356,38.958 59.375 C 38.983 53.394,38.983 43.606,38.958 37.625 C 38.934 31.644,38.914 36.537,38.914 48.500 M24.125 31.621 C 24.423 31.658,24.910 31.658,25.208 31.621 C 25.506 31.584,25.262 31.553,24.667 31.553 C 24.071 31.553,23.827 31.584,24.125 31.621 M27.580 54.500 C 27.580 63.254,27.600 66.835,27.625 62.458 C 27.650 58.081,27.650 50.919,27.625 46.542 C 27.600 42.165,27.580 45.746,27.580 54.500 M44.910 63.417 C 44.910 67.267,44.932 68.818,44.958 66.864 C 44.985 64.910,44.985 61.760,44.958 59.864 C 44.931 57.968,44.910 59.567,44.910 63.417 " stroke="none" fill="#dd9afc" fill-rule="evenodd"></path><path id="path3" d="M41.375 25.621 C 41.719 25.657,42.281 25.657,42.625 25.621 C 42.969 25.585,42.688 25.556,42.000 25.556 C 41.313 25.556,41.031 25.585,41.375 25.621 M63.963 25.622 C 64.355 25.657,64.955 25.657,65.296 25.621 C 65.637 25.585,65.317 25.557,64.583 25.557 C 63.850 25.558,63.571 25.587,63.963 25.622 M61.073 26.542 L 60.583 27.083 61.125 26.594 C 61.630 26.138,61.743 26.000,61.615 26.000 C 61.586 26.000,61.342 26.244,61.073 26.542 M67.277 26.167 C 67.383 26.304,67.503 26.642,67.544 26.917 L 67.617 27.417 67.642 26.895 C 67.657 26.574,67.555 26.287,67.375 26.145 C 67.121 25.946,67.108 25.949,67.277 26.167 M28.226 28.083 C 28.225 28.908,28.254 29.267,28.288 28.880 C 28.323 28.493,28.324 27.818,28.289 27.380 C 28.255 26.942,28.226 27.258,28.226 28.083 M21.058 28.167 C 21.058 28.946,21.087 29.265,21.122 28.875 C 21.157 28.485,21.157 27.848,21.122 27.458 C 21.087 27.069,21.058 27.387,21.058 28.167 M27.214 38.217 C 27.417 38.428,27.614 38.578,27.652 38.551 C 27.749 38.481,27.143 37.833,26.980 37.833 C 26.906 37.833,27.011 38.006,27.214 38.217 M21.747 54.500 C 21.747 63.346,21.767 66.965,21.792 62.542 C 21.816 58.119,21.816 50.881,21.792 46.458 C 21.767 42.035,21.747 45.654,21.747 54.500 M45.034 42.792 C 45.015 44.831,45.056 46.500,45.125 46.500 C 45.194 46.500,45.231 45.394,45.207 44.042 C 45.127 39.492,45.067 39.060,45.034 42.792 M45.029 50.042 C 45.059 52.114,45.124 51.867,45.205 49.375 C 45.230 48.618,45.194 47.999,45.125 48.000 C 45.056 48.000,45.013 48.919,45.029 50.042 M57.000 64.167 C 57.196 64.442,57.394 64.667,57.439 64.667 C 57.485 64.667,57.362 64.442,57.167 64.167 C 56.971 63.892,56.773 63.667,56.727 63.667 C 56.681 63.667,56.804 63.892,57.000 64.167 M27.214 70.783 C 27.011 70.994,26.906 71.167,26.980 71.167 C 27.143 71.167,27.749 70.519,27.652 70.449 C 27.614 70.422,27.417 70.572,27.214 70.783 " stroke="none" fill="#c759fc" fill-rule="evenodd"></path><path id="path4" d="M41.627 25.785 C 41.834 25.824,42.134 25.823,42.294 25.781 C 42.453 25.739,42.283 25.707,41.917 25.709 C 41.550 25.711,41.420 25.745,41.627 25.785 M64.375 25.782 C 64.535 25.823,64.798 25.823,64.958 25.782 C 65.119 25.740,64.987 25.705,64.667 25.705 C 64.346 25.705,64.215 25.740,64.375 25.782 M44.898 44.417 C 44.898 45.608,44.925 46.074,44.957 45.451 C 44.989 44.829,44.989 43.854,44.957 43.285 C 44.924 42.716,44.898 43.225,44.898 44.417 M44.888 49.083 C 44.889 49.725,44.919 49.967,44.955 49.621 C 44.991 49.275,44.990 48.750,44.954 48.455 C 44.917 48.159,44.887 48.442,44.888 49.083 " stroke="none" fill="#eeccfc" fill-rule="evenodd"></path><path id="path5" d="M44.906 37.833 C 44.906 40.354,44.930 41.385,44.958 40.125 C 44.986 38.865,44.986 36.802,44.958 35.542 C 44.930 34.281,44.906 35.313,44.906 37.833 M24.377 37.786 C 24.631 37.825,25.006 37.824,25.211 37.784 C 25.416 37.744,25.208 37.713,24.750 37.714 C 24.292 37.716,24.124 37.748,24.377 37.786 M44.903 53.333 C 44.903 55.121,44.928 55.852,44.958 54.958 C 44.988 54.065,44.988 52.602,44.958 51.708 C 44.928 50.815,44.903 51.546,44.903 53.333 M24.121 71.287 C 24.417 71.324,24.942 71.324,25.288 71.288 C 25.634 71.252,25.392 71.222,24.750 71.221 C 24.108 71.221,23.825 71.250,24.121 71.287 M41.461 71.287 C 41.761 71.325,42.211 71.324,42.461 71.286 C 42.712 71.248,42.467 71.217,41.917 71.218 C 41.367 71.219,41.162 71.250,41.461 71.287 M64.621 71.287 C 64.917 71.324,65.442 71.324,65.788 71.288 C 66.134 71.252,65.892 71.222,65.250 71.221 C 64.608 71.221,64.325 71.250,64.621 71.287 " stroke="none" fill="#e4bcfc" fill-rule="evenodd"></path><path id="path6" d="M39.081 48.417 C 39.081 60.517,39.101 65.442,39.125 59.362 C 39.149 53.282,39.149 43.382,39.125 37.362 C 39.101 31.342,39.081 36.317,39.081 48.417 M21.913 54.500 C 21.913 63.254,21.934 66.835,21.958 62.458 C 21.983 58.081,21.983 50.919,21.958 46.542 C 21.934 42.165,21.913 45.746,21.913 54.500 " stroke="none" fill="#f3e1fc" fill-rule="evenodd"></path><path id="path7" d="M27.413 54.583 C 27.413 63.292,27.434 66.879,27.458 62.554 C 27.483 58.230,27.483 51.105,27.458 46.721 C 27.434 42.337,27.413 45.875,27.413 54.583 " stroke="none" fill="#f4ecfc" fill-rule="evenodd"></path><path id="path8" d="M24.375 24.948 C 24.535 24.990,24.798 24.990,24.958 24.948 C 25.119 24.906,24.988 24.872,24.667 24.872 C 24.346 24.872,24.215 24.906,24.375 24.948 M28.048 28.083 C 28.049 28.542,28.081 28.709,28.120 28.456 C 28.158 28.203,28.157 27.828,28.117 27.623 C 28.078 27.418,28.046 27.625,28.048 28.083 " stroke="none" fill="#fcecfc" fill-rule="evenodd"></path></g></svg>