<svg width="25" height="14" viewBox="0 0 25 14" fill="none" xmlns="http://www.w3.org/2000/svg">
<path d="M5.76407 5.92351L0.876408 0.175992C0.573036 -0.179192 -5.2286e-07 0.0468345 -5.06187e-07 0.466597L-1.88406e-08 12.7366C-8.85688e-10 13.1886 0.573036 13.3824 0.876408 13.0272L5.73036 7.27967C6.10115 6.8922 6.10115 6.31099 5.76407 5.92351Z" fill="#008CD5"/>
<path d="M14.7768 5.92351L9.8891 0.175992C9.58573 -0.179192 9.01269 0.0468345 9.01269 0.466597L9.0127 12.7366C9.0127 13.1886 9.58573 13.3824 9.8891 13.0272L14.7431 7.27967C15.1138 6.8922 15.1138 6.31099 14.7768 5.92351Z" fill="#008CD5"/>
<path d="M23.7895 5.92351L18.9018 0.175992C18.5984 -0.179192 18.0254 0.0468345 18.0254 0.466597L18.0254 12.7366C18.0254 13.1886 18.5984 13.3824 18.9018 13.0272L23.7558 7.27967C24.1265 6.8922 24.1265 6.31099 23.7895 5.92351Z" fill="#008CD5"/>
</svg>
