<svg width="160" height="62" viewBox="0 0 160 62" fill="none" xmlns="http://www.w3.org/2000/svg">
<path d="M15.8807 33.2023L6.70109 53.8218H0L10.0975 31.7787C5.32415 29.3448 2.2031 24.9821 2.2031 16.9456C2.2031 5.64853 9.31727 0 17.8543 0H26.529V53.8218H20.6999V33.2023H15.8807ZM20.6999 4.91376H17.6248C12.9432 4.91376 8.44521 7.9906 8.44521 16.9456C8.44521 25.625 12.576 28.3804 17.6248 28.3804H20.6999V4.91376Z" fill="#FF0000"/>
<path d="M54.4347 15.889V53.8224H48.6516V36.8304H39.931V53.8683H34.0101V15.889H39.8851V32.0084H48.6057V15.889H54.4347ZM84.5896 61.308H79.3113V53.8683H63.0635V61.308H57.7852V49.0463H60.126C63.5684 41.0095 63.9814 29.2529 63.9814 19.1496V15.889H81.6062V49.0004H84.6355V61.308H84.5896ZM75.7772 20.6192H69.2138V21.308C69.2138 29.2989 68.8466 40.9636 65.6797 49.0004H75.7772V20.6192ZM100.792 54.3735C92.943 54.3735 88.1696 48.1278 88.1696 36.463C88.1696 24.2472 91.5661 15.3838 99.5982 15.3838C105.932 15.3838 110.063 20.114 110.063 33.0187V36.2793H94.274C94.274 44.8672 96.6607 49.3677 101.342 49.3677C104.647 49.3677 107.309 47.8522 108.778 46.796L110.155 51.2966C107.676 53.1795 104.555 54.3735 100.792 54.3735ZM94.3199 31.4114H104.05C104.05 24.9361 102.995 20.2059 99.5982 20.2059C95.9723 20.1599 94.6871 24.6146 94.3199 31.4114ZM121.905 34.9475V53.8683H116.03V15.889H121.905V33.432L130.992 15.889H136.959L127.55 33.7535L138.29 53.8683H131.91L121.905 34.9475ZM139.07 34.8557C139.07 22.9613 143.66 15.3379 152.564 15.3379C155.961 15.3379 157.889 16.2564 159.541 17.3126L158.715 22.8695C157.154 21.4917 154.859 20.2518 152.473 20.2518C148.25 20.2518 145.267 24.982 145.267 34.5801C145.267 44.0865 147.516 49.5055 152.243 49.5055C155.089 49.5055 157.292 48.3574 158.623 47.1634L160 51.5262C157.98 53.2713 155.548 54.3735 152.105 54.3735C143.981 54.3735 139.07 47.8063 139.07 34.8557Z" fill="black"/>
</svg>
