<svg width="258" height="46" viewBox="0 0 258 46" fill="none" xmlns="http://www.w3.org/2000/svg">
<path fill-rule="evenodd" clip-rule="evenodd" d="M38.649 18.5305C37.0731 16.3624 35.2017 14.2929 33.3303 12.3219C28.6025 7.59155 22.4958 3.15685 15.9951 1.08732C11.7598 -0.292362 6.04703 -0.883655 2.59969 2.56555C2.3042 2.8612 2.10721 3.15685 1.91022 3.45249C0.137301 5.81767 -0.158185 8.87268 0.137301 11.7306C0.629778 15.3769 2.10721 19.0232 3.88013 22.1768C4.66809 20.8956 5.45605 19.7131 6.34251 18.4319C5.75154 17.2493 5.25906 16.0667 4.86508 14.7856C3.97862 12.1248 3.09216 7.59155 5.35756 5.32492C7.62295 3.0583 12.1537 3.94524 14.8131 4.83218C20.6243 6.70461 26.2386 10.8437 30.5724 15.1798C32.7393 17.3479 34.8077 19.8116 36.4821 22.3739C37.2701 21.0927 38.058 19.8116 38.649 18.5305ZM39.437 27.2028C40.0279 28.3854 40.5204 29.5679 40.9144 30.8491C41.8009 33.5099 42.6873 38.1417 40.4219 40.3098C38.1565 42.5764 33.6257 41.6895 30.9664 40.8025C25.1551 38.9301 19.5409 34.791 15.2071 30.4549C13.0402 28.2868 10.9718 25.8231 9.29737 23.2608C8.50941 24.4434 7.81994 25.7245 7.13048 27.0057C8.7064 29.1737 10.5778 31.2433 12.4492 33.2143C17.177 37.9446 23.2837 42.3793 29.7844 44.4488C34.0197 45.8285 39.7325 46.5183 43.1798 42.9706C43.4753 42.6749 43.6723 42.3793 43.8693 42.0837C45.6422 39.7185 45.9377 36.6635 45.5437 33.8055C45.0512 30.1592 43.5738 26.5129 41.8009 23.3594C41.1114 24.739 40.3234 26.0202 39.437 27.2028Z" fill="#0C95ED"/>
<path fill-rule="evenodd" clip-rule="evenodd" d="M18.5538 6.99975C16.3869 8.57653 14.3185 10.449 12.3486 12.3214C7.62083 17.0517 3.18854 23.1618 1.12013 29.666C-0.258806 33.9036 -0.948274 39.6194 2.59756 43.0686C2.89305 43.3643 3.09004 43.5614 3.48402 43.7585C5.84791 45.5323 8.90127 45.828 11.7576 45.4338C15.402 44.941 19.0463 43.4628 22.1982 41.6889C20.9177 40.9005 19.7358 40.1121 18.4553 39.2252C17.2734 39.8165 16.0914 40.3092 14.811 40.7034C12.1516 41.5904 7.52234 42.4773 5.35544 40.2107C3.09004 37.9441 3.9765 33.4108 4.86296 30.75C6.73437 24.9356 10.8712 19.3183 15.205 14.9822C17.3719 12.8141 19.8343 10.7446 22.3952 9.06927C21.1147 8.37943 19.8343 7.68959 18.5538 6.99975ZM27.2214 6.30991C28.4034 5.71861 29.5853 5.22587 30.8658 4.83168C33.6236 3.94474 38.1544 3.0578 40.4198 5.32442C42.6852 7.59104 41.7988 12.1243 40.9123 14.7851C39.0409 20.698 34.9041 26.3153 30.5703 30.5529C28.4034 32.721 25.941 34.7905 23.3801 36.4658C24.5621 37.2542 25.8425 37.9441 27.1229 38.6339C29.2898 37.0571 31.3582 35.1847 33.3282 33.3123C38.0559 28.5819 42.4882 22.4719 44.5566 15.9677C45.9356 11.7301 46.625 6.01426 43.0792 2.56505C42.7837 2.26941 42.5867 2.07231 42.1927 1.87521C39.8289 0.101332 36.7755 -0.194314 33.9191 0.199881C30.2748 0.692625 26.6305 2.17086 23.4786 3.94474C24.759 4.63458 26.0395 5.42297 27.2214 6.30991Z" fill="#EF202F"/>
<path d="M74.3017 31.0478C79.9159 30.8507 83.9542 27.8943 83.9542 22.7699C83.9542 17.6455 80.0144 14.6891 74.3017 14.3935V12.127H70.1649V14.3935C67.3085 14.4921 64.9446 15.2804 63.1717 16.7586C61.3988 18.1383 60.5123 20.1092 60.5123 22.6714C60.5123 27.7958 64.4521 30.8507 70.0664 31.0478V33.5114H74.2032V31.0478H74.3017ZM79.8174 22.6714C79.8174 25.7263 77.749 27.4016 74.2032 27.5001V17.9412C77.749 18.0397 79.8174 19.715 79.8174 22.6714ZM70.1649 27.5001C66.7175 27.303 64.6491 25.7263 64.6491 22.7699C64.6491 19.8135 66.7175 18.0397 70.1649 17.9412V27.5001ZM103.161 12.4226L91.4399 25.135V12.8168H87.3031V33.2158H88.682L100.403 20.4048V32.8216H104.54V12.4226H103.161ZM123.451 27.0074C123.451 24.9379 122.367 23.2627 120.595 22.3757C121.875 21.3903 122.564 19.9121 122.564 18.3354C122.564 14.6891 120.004 12.5211 115.867 12.5211C112.518 12.5211 109.957 14.0979 108.677 16.8572L111.533 18.9266C112.518 17.1528 113.897 16.2659 115.67 16.2659C117.443 16.2659 118.526 17.2513 118.526 18.631C118.526 20.0106 117.541 20.8975 115.867 20.8975H113.503V24.2481H116.162C118.329 24.2481 119.413 25.2336 119.413 26.7118C119.413 28.387 117.837 29.3725 115.768 29.3725C113.7 29.3725 112.025 28.387 110.745 26.4161L107.889 28.4856C109.366 31.3434 112.222 33.1172 115.768 33.1172C120.496 33.2158 123.451 30.7521 123.451 27.0074Z" fill="black"/>
<path d="M131.035 32.9189H135.172V16.5584H141.574V12.8132H124.633V16.5584H131.035V32.9189ZM144.234 32.9189H158.121V29.1737H148.37V24.0488H155.265V20.5993H148.37V16.5584H157.727V12.8132H144.234V32.9189ZM177.623 32.9189L171.024 22.669L177.229 12.8132H172.6L168.759 19.1209L164.918 12.8132H160.19L166.493 22.669L159.796 32.9189H164.524L168.759 26.217L172.994 32.9189H177.623ZM180.283 32.9189H184.42V16.5584H192.989V32.9189H197.126V12.8132H180.381V32.9189H180.283ZM214.658 32.9189H219.09L210.127 12.5176H208.748L199.785 32.9189H204.217L205.301 30.2579H213.476L214.658 32.9189ZM212.097 26.9069H206.778L209.437 20.1065L212.097 26.9069ZM221.749 32.9189H225.886V25.8228H229.334C233.569 25.8228 236.524 23.1617 236.524 19.318C236.524 15.4743 233.47 12.8132 229.334 12.8132H221.848V32.9189H221.749ZM225.886 22.1762V16.3613H229.334C231.205 16.3613 232.387 17.544 232.387 19.2195C232.387 20.9935 231.303 22.1762 229.334 22.1762H225.886ZM257.503 32.9189L248.836 22.2747L256.518 12.8132H251.594L243.911 22.0776V12.8132H239.774V32.9189H243.911V22.4718L252.48 32.9189H257.503Z" fill="black"/>
</svg>
