<svg width="204" height="78" viewBox="0 0 204 78" fill="none" xmlns="http://www.w3.org/2000/svg">
<path d="M114.907 53.999C111.154 56.1446 106.865 55.4294 102.755 55.2506L98.6445 55.4294C98.2871 55.4294 98.1084 55.4294 97.9297 55.2506C97.5723 55.0718 97.5723 54.893 97.5723 54.5354C97.5723 54.1778 97.9297 53.8202 98.2871 53.8202C99.0019 53.999 99.7168 53.8202 99.8955 53.2838C100.61 52.0322 100.432 50.0654 100.432 48.8138C100.432 47.9198 100.432 46.8471 100.432 45.9531C100.432 45.0591 100.432 43.8075 100.432 42.5559V35.0463V32.5432C100.432 31.2916 100.432 29.8612 100.432 28.6096C100.432 27.7156 100.432 27.0004 100.432 26.1064C100.432 25.0336 100.253 23.9608 99.1806 23.782C97.9297 23.4244 97.5723 23.782 97.0362 23.4244C96.6788 23.0668 96.6788 22.5304 97.2149 22.3517C97.3936 22.3517 97.5723 22.1729 97.9297 22.1729L102.755 22.3517C103.112 22.3517 103.47 22.3517 103.827 22.3517C104.184 22.3517 104.72 22.3517 105.435 22.3517H105.971C106.507 22.3517 107.044 22.3517 107.58 22.3517C109.188 22.3517 110.618 22.5304 111.69 22.888C112.941 23.2456 113.834 23.9608 114.728 24.8548C117.23 27.358 117.051 30.7552 115.264 33.7948C114.37 34.6888 113.477 35.7615 112.583 36.6555C120.446 39.1587 122.77 48.635 114.907 53.999ZM104.899 24.4972C104.72 24.4972 104.72 24.4972 104.72 24.4972V35.9403C105.078 35.9403 105.435 35.9403 105.614 36.1191C106.15 36.1191 106.686 36.1191 107.222 36.1191C107.758 36.1191 108.652 36.1191 109.009 36.1191C109.903 36.1191 110.796 35.4039 111.332 34.51C113.298 31.1128 112.047 26.1064 109.188 24.676C108.116 24.3184 106.329 24.1396 104.899 24.4972ZM111.154 39.3375C110.975 39.3375 110.975 39.1587 110.796 39.1587C110.26 38.8011 109.724 38.6223 109.009 38.4435C108.295 38.2647 107.401 38.0859 106.686 38.0859C105.971 38.0859 105.435 38.0859 105.257 38.0859C104.899 38.0859 104.72 38.0859 104.542 38.0859C104.542 42.1983 104.363 46.3107 104.542 50.423C104.542 50.9594 104.542 51.317 104.72 51.4958C104.72 51.6746 104.899 51.8534 105.078 52.0322C106.329 53.2838 109.545 53.2838 111.332 52.9262C112.583 52.5686 113.834 51.4958 114.549 50.2442C116.157 46.8471 114.37 41.4831 111.154 39.3375Z" fill="#005BAA"/>
<path d="M202.471 45.0596C202.293 45.4172 202.293 45.7748 202.114 46.1325C201.399 47.7417 200.327 49.3509 199.076 50.7814C195.859 54.3575 191.57 56.1455 186.567 56.1455C184.78 56.1455 182.993 55.9667 181.206 55.7879L179.955 55.6091C179.061 55.4303 177.989 55.2515 177.453 54.7151C177.274 54.5363 177.095 54.3575 177.095 54.1787C177.095 53.9999 176.917 53.8211 176.917 53.6422C176.917 53.4634 176.917 53.1058 176.917 52.927C176.917 52.5694 176.917 52.033 176.917 51.4966C176.917 50.4238 177.095 49.3509 177.274 48.2781C177.274 47.9205 177.274 47.7417 177.453 47.5629C177.632 47.0265 178.346 47.0265 178.525 47.5629C178.525 47.7417 178.704 47.9205 178.704 48.0993C178.882 48.8145 178.882 49.5297 179.061 50.4238C179.061 50.6026 179.24 50.7814 179.419 50.9602C179.955 52.033 180.848 52.7482 182.099 53.1058C182.457 53.2846 182.814 53.2846 183.171 53.4634C184.244 53.6422 185.673 53.8211 187.282 53.8211C189.247 53.8211 190.856 53.4634 192.285 52.927C192.464 52.7482 192.821 52.7482 193 52.5694C194.251 52.033 195.144 51.139 196.038 50.245C196.395 49.8874 196.574 49.5297 196.932 49.1721C197.11 48.8145 197.468 48.4569 197.646 47.9205C198.719 45.7748 199.255 43.0928 199.255 39.6955C199.255 39.3379 199.255 39.1591 199.255 38.9803H194.251H189.605C188.354 38.9803 187.282 39.1591 186.745 39.3379C186.567 39.5167 186.209 39.5167 186.031 39.6955C185.673 40.0531 185.316 40.5895 184.958 41.1259L184.78 41.6623C184.601 42.1988 184.244 42.3776 183.707 42.1988C183.529 42.02 183.35 41.8412 183.35 41.4835C183.35 40.4107 184.065 38.2651 184.244 37.0134C184.244 36.6558 184.244 36.2982 184.601 36.1194C184.78 36.1194 184.958 35.9406 185.137 35.9406C185.137 35.9406 185.316 35.9406 185.495 36.1194L185.852 36.2982C186.031 36.2982 186.209 36.477 186.388 36.477C186.745 36.6558 187.282 36.6558 187.639 36.6558C187.818 36.6558 188.175 36.6558 188.532 36.6558H190.319H199.076C198.897 34.8678 198.361 33.0797 197.646 31.6493C196.932 30.0401 196.038 28.7884 194.787 27.7156C194.251 27.1792 193.536 26.6428 192.821 26.2852C191.034 25.2123 189.069 24.6759 186.745 24.6759C185.852 24.6759 184.958 24.6759 184.244 24.8547C183.529 25.0335 182.814 25.2123 182.099 25.3911C181.384 25.5699 180.848 25.9276 180.312 26.2852C179.776 26.6428 179.419 27.1792 179.061 27.7156C178.882 28.0732 178.704 28.6096 178.525 28.9672C178.525 29.146 178.346 29.5036 178.346 29.8613C178.346 30.0401 178.346 31.1129 178.168 31.2917C177.989 31.6493 177.81 32.0069 177.274 31.6493C177.095 31.4705 176.917 31.2917 176.917 31.1129C176.917 30.9341 176.738 30.7553 176.738 30.5765V30.3977V29.8613L176.559 27.8944V27.5368V27.1792C176.559 26.464 176.559 26.1064 176.559 25.5699C176.559 25.3911 176.559 25.0335 176.738 24.8547C176.917 24.6759 177.095 24.4971 177.274 24.4971C177.453 24.3183 177.81 24.3183 177.989 24.1395C178.168 23.9607 178.525 23.9607 178.704 23.7819C179.24 23.6031 179.776 23.4243 180.312 23.2455C180.848 23.0667 181.384 23.0667 181.92 22.8879C183.35 22.7091 184.958 22.5303 186.567 22.5303C191.57 22.5303 195.681 23.9607 198.719 26.8216C200.327 28.252 201.578 30.0401 202.471 32.1857C204.258 35.583 204.08 40.7683 202.471 45.0596Z" fill="#005BAA"/>
<path d="M171.377 55.4277H170.662H169.769H168.339H166.195C154.221 55.4277 142.07 55.4277 130.096 55.4277H125.808C125.45 55.4277 125.271 55.4277 125.093 55.2489C124.914 55.0701 124.735 54.8913 124.735 54.7126V54.5338V54.355C124.914 53.9974 125.093 53.9974 125.45 53.9974C126.701 53.8186 127.058 53.9974 127.416 52.7458C127.416 52.567 127.595 52.2094 127.595 51.8518C127.595 51.4942 127.595 51.1366 127.773 50.4215C127.773 49.8851 127.773 49.1699 127.773 48.2759V47.2031V45.7728V44.7V42.5545V35.0451V30.0388V25.9265C127.773 25.5689 127.773 25.3901 127.595 25.0325C127.416 24.3173 126.88 23.9597 126.165 23.7809H125.986C125.629 23.7809 125.271 23.7809 124.914 23.7809C124.378 23.7809 124.199 23.6022 124.199 23.0658C124.199 22.5294 124.557 22.3506 125.271 22.3506L130.096 22.5294L134.207 22.3506C134.921 22.3506 135.279 22.5294 135.279 23.0658C135.279 23.2446 135.279 23.4234 135.1 23.6022C134.921 23.7809 134.743 23.7809 134.564 23.7809L133.492 23.9597C133.134 23.9597 132.777 24.3173 132.598 24.4961C132.241 24.6749 132.241 25.2113 132.241 25.9265V29.86V35.5814V42.5545V44.7V46.3092V46.8456V47.9183C132.241 48.8123 132.241 49.5275 132.241 50.0639C132.241 50.7791 132.241 51.3154 132.42 51.8518C132.42 52.0306 132.42 52.2094 132.42 52.2094C132.42 52.3882 132.42 52.567 132.42 52.567C132.42 52.567 132.598 52.567 132.777 52.567H144.75C144.929 52.567 145.108 52.567 145.108 52.567C145.108 52.567 145.108 52.567 145.108 52.3882C145.108 52.2094 145.108 52.0306 145.286 51.673V51.4942V51.1366V50.7791C145.286 50.0639 145.286 49.3487 145.286 48.2759V47.2031V44.7V42.5545V35.0451V30.0388V25.9265C145.286 25.5689 145.286 25.3901 145.108 25.2113C145.108 25.0325 144.929 24.8537 144.929 24.6749C144.571 24.1385 144.035 23.9597 143.499 23.9597H143.142H142.784C142.248 23.9597 142.07 23.7809 142.07 23.2446C142.07 22.7082 142.427 22.5294 143.142 22.5294L147.431 22.7082L151.541 22.5294C152.256 22.5294 152.613 22.7082 152.613 23.2446C152.613 23.4234 152.613 23.6022 152.434 23.7809C152.256 23.9597 152.077 23.9597 151.898 23.9597L150.826 24.1385C150.469 24.1385 150.111 24.4961 149.933 24.6749C149.754 25.0325 149.575 25.5689 149.575 26.1053V29.86V35.4026V42.9121V45.0576C149.575 46.8456 149.575 48.6335 149.575 50.4215C149.575 51.1366 149.575 51.673 149.754 52.2094C149.754 52.567 149.754 52.9246 149.933 53.1034C149.933 53.1034 150.111 53.2822 150.469 53.2822H162.442C162.621 53.2822 162.799 53.2822 162.799 53.2822C162.799 53.2822 162.799 53.2822 162.978 53.1034C162.978 52.9246 163.157 52.7458 163.157 52.2094C163.157 51.673 163.335 50.4215 163.335 48.8123V46.1304V43.0909V36.1178V30.3964V25.9265C163.335 25.5689 163.335 25.3901 163.335 25.0325C163.157 24.4961 162.799 23.9597 162.084 23.9597C161.906 23.9597 161.548 23.7809 161.37 23.7809C161.012 23.7809 160.833 23.7809 160.476 23.7809C159.94 23.7809 159.761 23.6022 159.761 23.0658C159.761 22.5294 160.119 22.3506 160.833 22.3506L165.658 22.5294L169.769 22.3506C170.483 22.3506 170.841 22.5294 170.841 23.0658C170.841 23.2446 170.841 23.4234 170.662 23.6022C169.947 24.1385 168.875 23.4234 168.16 24.4961C167.982 24.8537 167.803 25.3901 167.803 25.9265V29.6812V35.2239V42.7333V45.4152V47.9183V48.8123V49.8851C167.803 50.6003 167.803 51.1366 167.982 51.673C168.16 52.7458 168.16 53.6398 169.411 53.8186L171.198 53.9974C171.377 53.9974 171.734 54.1762 171.913 54.355C172.628 55.0701 172.092 55.4277 171.377 55.4277Z" fill="#005BAA"/>
<path d="M38.6 0C17.3343 0 0 17.344 0 38.6216C0 59.8992 17.3343 77.2432 38.6 77.2432C59.8657 77.2432 77.2 59.8992 77.2 38.6216C77.3787 17.344 60.0444 0 38.6 0ZM38.6 75.9915C18.0491 75.9915 1.42963 59.3628 1.42963 38.8004C1.42963 18.238 18.0491 1.60923 38.6 1.60923C59.1509 1.60923 75.7704 18.238 75.7704 38.8004C75.9491 59.184 59.1509 75.9915 38.6 75.9915ZM38.6 5.90052C20.5509 5.90052 5.89722 20.5624 5.89722 38.6216C5.89722 56.8596 20.5509 71.5214 38.6 71.5214C56.8278 71.5214 71.4815 56.8596 71.4815 38.6216C71.4815 20.5624 56.8278 5.90052 38.6 5.90052ZM36.2768 16.2711H36.4555H38.7787C43.2463 16.2711 45.0333 16.9863 47.1778 18.5956C50.2157 20.92 50.7518 24.4961 50.7518 26.2841C50.7518 28.4298 50.037 30.7542 48.4287 32.5423C47.1778 33.9727 45.212 36.1183 41.1018 36.6547C38.2426 37.0123 36.2768 36.8335 35.2046 36.8335V34.6879C35.7407 34.6879 36.2768 34.8667 37.3491 34.8667C40.2083 34.8667 42.1741 33.4363 43.2463 32.0058C44.6759 30.3966 44.8546 28.7874 45.0333 27.357H37.3491V25.0325H44.6759C44.4972 23.6021 43.9611 22.5293 43.0676 21.2776C41.2805 19.132 38.7787 18.7744 37.1704 18.7744H26.2694L25.0185 16.2711H36.2768ZM25.5546 60.2568L26.9843 57.5748V20.7412H32.8815V57.5748H37.1704V43.2705H42.7102V57.5748H47.5352V50.959C47.5352 47.0254 47.3565 41.4824 42.8889 38.6216L45.5694 37.7276C50.9305 39.6944 53.6111 44.8797 53.6111 51.8531V57.5748L55.0407 60.2568H25.5546Z" fill="#005BAA"/>
</svg>
