<svg width="63" height="25" viewBox="0 0 63 25" fill="none" xmlns="http://www.w3.org/2000/svg">
<path d="M6.37312 13.7645L2.80707 21.7746H0.203857L4.12651 13.2115C2.27217 12.2659 1.05971 10.5712 1.05971 7.44916C1.05971 3.06053 3.8234 0.866211 7.13983 0.866211H10.5097V21.7746H8.2453V13.7645H6.37312ZM8.2453 2.77509H7.05067C5.23199 2.77509 3.48462 3.97036 3.48462 7.44916C3.48462 10.8209 5.08935 11.8913 7.05067 11.8913H8.2453V2.77509Z" fill="#FF0000"/>
<path d="M21.3505 7.0383V21.7743H19.1039V15.1734H15.7161V21.7921H13.416V7.0383H15.6983V13.3002H19.086V7.0383H21.3505ZM33.0649 24.6822H31.0145V21.7921H24.7026V24.6822H22.6521V19.9189H23.5614C24.8987 16.7969 25.0592 12.2298 25.0592 8.30495V7.0383H31.906V19.9011H33.0828V24.6822H33.0649ZM29.6415 8.87584H27.0918V9.14344C27.0918 12.2476 26.9492 16.779 25.7189 19.9011H29.6415V8.87584ZM39.359 21.9883C36.31 21.9883 34.4557 19.5621 34.4557 15.0307C34.4557 10.2852 35.7751 6.84206 38.8954 6.84206C41.356 6.84206 42.9607 8.67959 42.9607 13.6927V14.9593H36.8271C36.8271 18.2954 37.7543 20.0438 39.573 20.0438C40.8568 20.0438 41.8909 19.455 42.4615 19.0447L42.9964 20.7931C42.0336 21.5245 40.8211 21.9883 39.359 21.9883ZM36.845 13.0683H40.625C40.625 10.5528 40.2149 8.71527 38.8954 8.71527C37.4868 8.69743 36.9876 10.4279 36.845 13.0683ZM47.5609 14.442V21.7921H45.2787V7.0383H47.5609V13.8532L51.0913 7.0383H53.4092L49.754 13.9781L53.9263 21.7921H51.4479L47.5609 14.442ZM54.2294 14.4063C54.2294 9.78568 56.0125 6.82422 59.4715 6.82422C60.791 6.82422 61.5398 7.18102 62.1817 7.59135L61.8608 9.75C61.2545 9.2148 60.363 8.73311 59.4359 8.73311C57.7955 8.73311 56.6365 10.5707 56.6365 14.2992C56.6365 17.9922 57.5102 20.0973 59.3467 20.0973C60.4522 20.0973 61.308 19.6513 61.8251 19.1874L62.36 20.8823C61.5755 21.5602 60.6305 21.9883 59.2932 21.9883C56.1373 21.9883 54.2294 19.4372 54.2294 14.4063Z" fill="black"/>
</svg>
