<svg width="71" height="27" viewBox="0 0 71 27" fill="none" xmlns="http://www.w3.org/2000/svg">
<path d="M40.0485 18.6319C38.7599 19.3686 37.2872 19.123 35.8758 19.0616L34.4645 19.123C34.3417 19.123 34.2804 19.123 34.219 19.0616C34.0963 19.0002 34.0963 18.9388 34.0963 18.816C34.0963 18.6933 34.219 18.5705 34.3417 18.5705C34.5872 18.6319 34.8326 18.5705 34.894 18.3863C35.1395 17.9565 35.0781 17.2811 35.0781 16.8513C35.0781 16.5443 35.0781 16.176 35.0781 15.869C35.0781 15.562 35.0781 15.1322 35.0781 14.7024V12.1237V11.2642C35.0781 10.8344 35.0781 10.3432 35.0781 9.91343C35.0781 9.60644 35.0781 9.36085 35.0781 9.05387C35.0781 8.68548 35.0167 8.3171 34.6486 8.2557C34.219 8.13291 34.0963 8.2557 33.9122 8.13291C33.7895 8.01011 33.7895 7.82592 33.9736 7.76452C34.0349 7.76452 34.0963 7.70312 34.219 7.70312L35.8758 7.76452C35.9985 7.76452 36.1213 7.76452 36.244 7.76452C36.3667 7.76452 36.5508 7.76452 36.7963 7.76452H36.9804C37.1644 7.76452 37.3485 7.76452 37.5326 7.76452C38.0849 7.76452 38.5758 7.82592 38.944 7.94871C39.3735 8.07151 39.6803 8.3171 39.9872 8.62409C40.8462 9.48365 40.7849 10.6502 40.1713 11.694C39.8644 12.0009 39.5576 12.3693 39.2508 12.6763C41.9508 13.5359 42.7485 16.7899 40.0485 18.6319ZM36.6122 8.50129C36.5508 8.50129 36.5508 8.50129 36.5508 8.50129V12.4307C36.6735 12.4307 36.7963 12.4307 36.8576 12.4921C37.0417 12.4921 37.2258 12.4921 37.4099 12.4921C37.594 12.4921 37.9008 12.4921 38.0235 12.4921C38.3304 12.4921 38.6372 12.2465 38.8213 11.9395C39.4963 10.773 39.0667 9.05387 38.0849 8.56269C37.7167 8.43989 37.1031 8.3785 36.6122 8.50129ZM38.7599 13.5973C38.6985 13.5973 38.6985 13.5359 38.6372 13.5359C38.4531 13.4131 38.269 13.3517 38.0235 13.2903C37.7781 13.2289 37.4713 13.1675 37.2258 13.1675C36.9804 13.1675 36.7963 13.1675 36.7349 13.1675C36.6122 13.1675 36.5508 13.1675 36.4895 13.1675C36.4895 14.5796 36.4281 15.9918 36.4895 17.4039C36.4895 17.5881 36.4895 17.7109 36.5508 17.7723C36.5508 17.8337 36.6122 17.8951 36.6735 17.9565C37.1031 18.3863 38.2076 18.3863 38.8213 18.2635C39.2508 18.1407 39.6803 17.7723 39.9258 17.3425C40.4781 16.176 39.8644 14.334 38.7599 13.5973Z" fill="#005BAA"/>
<path d="M70.1164 15.5625C70.0551 15.6853 70.0551 15.8081 69.9937 15.9309C69.7482 16.4835 69.3801 17.036 68.9505 17.5272C67.846 18.7552 66.3733 19.3692 64.6551 19.3692C64.0415 19.3692 63.4278 19.3078 62.8142 19.2464L62.3846 19.185C62.0778 19.1236 61.7097 19.0622 61.5256 18.878C61.4642 18.8166 61.4028 18.7552 61.4028 18.6938C61.4028 18.6324 61.3415 18.571 61.3415 18.5096C61.3415 18.4482 61.3415 18.3254 61.3415 18.264C61.3415 18.1412 61.3415 17.957 61.3415 17.7728C61.3415 17.4044 61.4028 17.036 61.4642 16.6677C61.4642 16.5449 61.4642 16.4835 61.5256 16.4221C61.5869 16.2379 61.8324 16.2379 61.8937 16.4221C61.8937 16.4835 61.9551 16.5449 61.9551 16.6063C62.0165 16.8519 62.0165 17.0974 62.0778 17.4044C62.0778 17.4658 62.1392 17.5272 62.2006 17.5886C62.3847 17.957 62.6915 18.2026 63.121 18.3254C63.2437 18.3868 63.3665 18.3868 63.4892 18.4482C63.8574 18.5096 64.3483 18.571 64.9005 18.571C65.5755 18.571 66.1278 18.4482 66.6187 18.264C66.6801 18.2026 66.8028 18.2026 66.8642 18.1412C67.2937 17.957 67.6005 17.65 67.9073 17.343C68.0301 17.2202 68.0914 17.0974 68.2142 16.9747C68.2755 16.8519 68.3983 16.7291 68.4596 16.5449C68.8278 15.8081 69.0119 14.8871 69.0119 13.7206C69.0119 13.5978 69.0119 13.5364 69.0119 13.475H67.2937H65.6983C65.2687 13.475 64.9005 13.5364 64.7165 13.5978C64.6551 13.6592 64.5324 13.6592 64.471 13.7206C64.3483 13.8434 64.2255 14.0276 64.1028 14.2118L64.0415 14.396C63.9801 14.5801 63.8574 14.6415 63.6733 14.5801C63.6119 14.5187 63.5506 14.4574 63.5506 14.3346C63.5506 13.9662 63.796 13.2294 63.8574 12.7996C63.8574 12.6768 63.8574 12.554 63.9801 12.4926C64.0415 12.4926 64.1028 12.4312 64.1642 12.4312C64.1642 12.4312 64.2256 12.4312 64.2869 12.4926L64.4096 12.554C64.471 12.554 64.5324 12.6154 64.5937 12.6154C64.7165 12.6768 64.9005 12.6768 65.0233 12.6768C65.0846 12.6768 65.2074 12.6768 65.3301 12.6768H65.9437H68.9505C68.8892 12.0628 68.7051 11.4489 68.4596 10.9577C68.2142 10.4051 67.9073 9.97533 67.4778 9.60694C67.2937 9.42275 67.0483 9.23856 66.8028 9.11576C66.1892 8.74738 65.5142 8.56319 64.7165 8.56319C64.4096 8.56319 64.1028 8.56319 63.8574 8.62458C63.6119 8.68598 63.3665 8.74738 63.121 8.80878C62.8756 8.87017 62.6915 8.99297 62.5074 9.11576C62.3233 9.23856 62.2006 9.42275 62.0778 9.60694C62.0165 9.72974 61.9551 9.91393 61.8937 10.0367C61.8937 10.0981 61.8324 10.2209 61.8324 10.3437C61.8324 10.4051 61.8324 10.7735 61.771 10.8349C61.7097 10.9577 61.6483 11.0805 61.4642 10.9577C61.4028 10.8963 61.3415 10.8349 61.3415 10.7735C61.3415 10.7121 61.2801 10.6507 61.2801 10.5893V10.5279V10.3437L61.2188 9.66834V9.54555V9.42275C61.2188 9.17716 61.2188 9.05437 61.2188 8.87017C61.2188 8.80878 61.2187 8.68598 61.2801 8.62458C61.3415 8.56319 61.4028 8.50179 61.4642 8.50179C61.5256 8.44039 61.6483 8.44039 61.7097 8.37899C61.771 8.3176 61.8937 8.3176 61.9551 8.2562C62.1392 8.1948 62.3233 8.1334 62.5074 8.07201C62.6915 8.01061 62.8756 8.01061 63.0596 7.94921C63.5506 7.88781 64.1028 7.82642 64.6551 7.82642C66.3733 7.82642 67.7846 8.3176 68.8278 9.29996C69.3801 9.79114 69.8096 10.4051 70.1164 11.1419C70.7301 12.3084 70.6687 14.089 70.1164 15.5625Z" fill="#005BAA"/>
<path d="M59.4392 19.1222H59.1937H58.8869H58.396H57.6596C53.5483 19.1222 49.3756 19.1222 45.2642 19.1222H43.7915C43.6688 19.1222 43.6074 19.1222 43.5461 19.0608C43.4847 18.9994 43.4233 18.938 43.4233 18.8766V18.8152V18.7539C43.4847 18.6311 43.5461 18.6311 43.6688 18.6311C44.0983 18.5697 44.2211 18.6311 44.3438 18.2013C44.3438 18.1399 44.4052 18.0171 44.4052 17.8943C44.4052 17.7715 44.4052 17.6487 44.4665 17.4031C44.4665 17.2189 44.4665 16.9733 44.4665 16.6664V16.298V15.8068V15.4384V14.7017V12.123V10.4039V8.99173C44.4665 8.86894 44.4665 8.80754 44.4052 8.68475C44.3438 8.43916 44.1597 8.31637 43.9143 8.25497H43.8529C43.7302 8.25497 43.6074 8.25497 43.4847 8.25497C43.3006 8.25497 43.2393 8.19357 43.2393 8.00938C43.2393 7.82519 43.362 7.76379 43.6074 7.76379L45.2642 7.82519L46.6756 7.76379C46.9211 7.76379 47.0438 7.82519 47.0438 8.00938C47.0438 8.07078 47.0438 8.13218 46.9824 8.19357C46.9211 8.25497 46.8597 8.25497 46.7983 8.25497L46.4301 8.31637C46.3074 8.31637 46.1847 8.43916 46.1233 8.50056C46.0006 8.56195 46.0006 8.74615 46.0006 8.99173V10.3425V12.3072V14.7017V15.4384V15.991V16.1752V16.5436C46.0006 16.8505 46.0006 17.0961 46.0006 17.2803C46.0006 17.5259 46.0006 17.7101 46.062 17.8943C46.062 17.9557 46.062 18.0171 46.062 18.0171C46.062 18.0785 46.062 18.1399 46.062 18.1399C46.062 18.1399 46.1233 18.1399 46.1847 18.1399H50.296C50.3574 18.1399 50.4188 18.1399 50.4188 18.1399C50.4188 18.1399 50.4188 18.1399 50.4188 18.0785C50.4188 18.0171 50.4188 17.9557 50.4801 17.8329V17.7715V17.6487V17.5259C50.4801 17.2803 50.4801 17.0347 50.4801 16.6664V16.298V15.4384V14.7017V12.123V10.4039V8.99173C50.4801 8.86894 50.4801 8.80754 50.4188 8.74615C50.4188 8.68475 50.3574 8.62335 50.3574 8.56195C50.2347 8.37776 50.0506 8.31637 49.8665 8.31637H49.7438H49.621C49.437 8.31637 49.3756 8.25497 49.3756 8.07078C49.3756 7.88659 49.4983 7.82519 49.7438 7.82519L51.2165 7.88659L52.6278 7.82519C52.8733 7.82519 52.996 7.88659 52.996 8.07078C52.996 8.13218 52.996 8.19357 52.9347 8.25497C52.8733 8.31637 52.8119 8.31637 52.7506 8.31637L52.3824 8.37776C52.2597 8.37776 52.1369 8.50056 52.0756 8.56195C52.0142 8.68475 51.9528 8.86894 51.9528 9.05313V10.3425V12.2458V14.8244V15.5612C51.9528 16.1752 51.9528 16.7891 51.9528 17.4031C51.9528 17.6487 51.9528 17.8329 52.0142 18.0171C52.0142 18.1399 52.0142 18.2627 52.0756 18.3241C52.0756 18.3241 52.1369 18.3855 52.2597 18.3855H56.371C56.4324 18.3855 56.4937 18.3855 56.4937 18.3855C56.4937 18.3855 56.4937 18.3855 56.5551 18.3241C56.5551 18.2627 56.6165 18.2013 56.6165 18.0171C56.6165 17.8329 56.6778 17.4031 56.6778 16.8505V15.9296V14.8858V12.4914V10.5267V8.99173C56.6778 8.86894 56.6778 8.80754 56.6778 8.68475C56.6165 8.50056 56.4937 8.31637 56.2483 8.31637C56.1869 8.31637 56.0642 8.25497 56.0028 8.25497C55.8801 8.25497 55.8187 8.25497 55.696 8.25497C55.5119 8.25497 55.4506 8.19357 55.4506 8.00938C55.4506 7.82519 55.5733 7.76379 55.8187 7.76379L57.4755 7.82519L58.8869 7.76379C59.1323 7.76379 59.2551 7.82519 59.2551 8.00938C59.2551 8.07078 59.2551 8.13218 59.1937 8.19357C58.9483 8.37776 58.5801 8.13218 58.3346 8.50056C58.2733 8.62335 58.2119 8.80754 58.2119 8.99173V10.2811V12.1844V14.763V15.684V16.5436V16.8505V17.2189C58.2119 17.4645 58.2119 17.6487 58.2733 17.8329C58.3346 18.2013 58.3346 18.5083 58.7642 18.5697L59.3778 18.6311C59.4392 18.6311 59.5619 18.6925 59.6233 18.7539C59.8687 18.9994 59.6846 19.1222 59.4392 19.1222Z" fill="#005BAA"/>
<path d="M13.8463 0.0892334C6.54403 0.0892334 0.591797 6.04472 0.591797 13.3509C0.591797 20.6571 6.54403 26.6126 13.8463 26.6126C21.1485 26.6126 27.1007 20.6571 27.1007 13.3509C27.1621 6.04472 21.2099 0.0892334 13.8463 0.0892334ZM13.8463 26.1829C6.78949 26.1829 1.0827 20.473 1.0827 13.4123C1.0827 6.3517 6.78949 0.641804 13.8463 0.641804C20.903 0.641804 26.6098 6.3517 26.6098 13.4123C26.6712 20.4116 20.903 26.1829 13.8463 26.1829ZM13.8463 2.11533C7.64857 2.11533 2.61678 7.14986 2.61678 13.3509C2.61678 19.6134 7.64857 24.6479 13.8463 24.6479C20.1053 24.6479 25.1371 19.6134 25.1371 13.3509C25.1371 7.14986 20.1053 2.11533 13.8463 2.11533ZM13.0485 5.67634H13.1099H13.9076C15.4417 5.67634 16.0553 5.92192 16.7917 6.4745C17.8349 7.27265 18.019 8.50059 18.019 9.11456C18.019 9.85132 17.7735 10.6495 17.2212 11.2634C16.7917 11.7546 16.1167 12.4914 14.7053 12.6756C13.7235 12.7984 13.0485 12.737 12.6804 12.737V12.0002C12.8644 12.0002 13.0485 12.0616 13.4167 12.0616C14.3985 12.0616 15.0735 11.5704 15.4417 11.0793C15.9326 10.5267 15.994 9.97411 16.0553 9.48294H13.4167V8.68478H15.9326C15.8712 8.1936 15.6872 7.82522 15.3803 7.39545C14.7667 6.65869 13.9076 6.53589 13.3554 6.53589H9.6122L9.18265 5.67634H13.0485ZM9.36674 20.7799L9.85765 19.859V7.21126H11.8826V19.859H13.3554V14.9472H15.2576V19.859H16.9144V17.5873C16.9144 16.2366 16.8531 14.3333 15.319 13.3509L16.2394 13.0439C18.0803 13.7193 19.0008 15.4998 19.0008 17.8943V19.859L19.4917 20.7799H9.36674Z" fill="#005BAA"/>
</svg>
