<svg width="110" height="20" viewBox="0 0 110 20" fill="none" xmlns="http://www.w3.org/2000/svg">
<path fill-rule="evenodd" clip-rule="evenodd" d="M16.9117 8.43872C16.2433 7.51914 15.4495 6.64136 14.6558 5.80538C12.6505 3.79902 10.0604 1.91806 7.3032 1.04028C5.50683 0.455097 3.08382 0.204303 1.62165 1.66727C1.49633 1.79267 1.41277 1.91806 1.32922 2.04346C0.577252 3.04664 0.451924 4.34241 0.577252 5.55458C0.786133 7.10115 1.41277 8.64771 2.16474 9.98528C2.49895 9.4419 2.83316 8.94031 3.20915 8.39692C2.95849 7.89533 2.74961 7.39374 2.5825 6.85036C2.20652 5.72178 1.83053 3.79902 2.79138 2.83764C3.75223 1.87627 5.67393 2.25246 6.80189 2.62865C9.26668 3.42283 11.6479 5.17839 13.4861 7.01755C14.4051 7.93713 15.2824 8.98211 15.9926 10.0689C16.3268 9.5255 16.661 8.98211 16.9117 8.43872ZM17.2459 12.117C17.4966 12.6186 17.7054 13.1202 17.8726 13.6636C18.2485 14.7922 18.6245 16.7567 17.6637 17.6763C16.7028 18.6377 14.7811 18.2615 13.6532 17.8853C11.1884 17.0911 8.80714 15.3356 6.96899 13.4964C6.04992 12.5768 5.17262 11.5319 4.46243 10.4451C4.12822 10.9467 3.83579 11.4901 3.54335 12.0334C4.21177 12.953 5.00552 13.8308 5.79926 14.6668C7.80452 16.6731 10.3946 18.5541 13.1519 19.4319C14.9482 20.0171 17.3712 20.3097 18.8334 18.8049C18.9587 18.6795 19.0423 18.5541 19.1258 18.4287C19.8778 17.4255 20.0031 16.1297 19.836 14.9176C19.6271 13.371 19.0005 11.8244 18.2485 10.4869C17.9561 11.0721 17.6219 11.6154 17.2459 12.117Z" fill="#0C95ED"/>
<path fill-rule="evenodd" clip-rule="evenodd" d="M8.39144 3.54773C7.47237 4.21652 6.59507 5.01071 5.75954 5.80489C3.75429 7.81126 1.87437 10.4028 0.997068 13.1616C0.412202 14.9589 0.119769 17.3833 1.62371 18.8463C1.74904 18.9717 1.83259 19.0553 1.99969 19.1389C3.00232 19.8913 4.29738 20.0167 5.50889 19.8495C7.0546 19.6405 8.60032 19.0135 9.93716 18.2611C9.39407 17.9267 8.89275 17.5923 8.34966 17.2161C7.84835 17.4669 7.34704 17.6759 6.80395 17.8431C5.67599 18.2193 3.71252 18.5955 2.79344 17.6341C1.83259 16.6727 2.20858 14.7499 2.58456 13.6214C3.37831 11.1552 5.1329 8.77264 6.97105 6.93347C7.89013 6.01389 8.93453 5.1361 10.0207 4.42552C9.47762 4.13292 8.93453 3.84032 8.39144 3.54773ZM12.0677 3.25513C12.5691 3.00434 13.0704 2.79534 13.6135 2.62815C14.7832 2.25195 16.7049 1.87576 17.6657 2.83714C18.6266 3.79853 18.2506 5.72129 17.8746 6.84987C17.0809 9.35783 15.3263 11.7404 13.4881 13.5378C12.5691 14.4573 11.5246 15.3351 10.4385 16.0457C10.9398 16.3801 11.4829 16.6727 12.026 16.9653C12.945 16.2965 13.8223 15.5023 14.6579 14.7081C16.6631 12.7018 18.543 10.1102 19.4203 7.35147C20.0052 5.5541 20.2976 3.12974 18.7937 1.66676C18.6684 1.54136 18.5848 1.45776 18.4177 1.37417C17.4151 0.621779 16.12 0.496381 14.9085 0.663578C13.3628 0.872575 11.8171 1.49956 10.4802 2.25195C11.0233 2.54455 11.5664 2.87894 12.0677 3.25513Z" fill="#EF202F"/>
<path d="M32.0366 13.7474C34.4179 13.6638 36.1307 12.4098 36.1307 10.2363C36.1307 8.06269 34.4597 6.80871 32.0366 6.68331V5.72192H30.282V6.68331C29.0705 6.72511 28.0679 7.05951 27.3159 7.6865C26.564 8.27169 26.188 9.10768 26.188 10.1945C26.188 12.368 27.859 13.6638 30.2403 13.7474V14.7924H31.9949V13.7474H32.0366ZM34.3761 10.1945C34.3761 11.4902 33.4988 12.2008 31.9949 12.2426V8.18809C33.4988 8.22989 34.3761 8.94048 34.3761 10.1945ZM30.282 12.2426C28.8199 12.159 27.9426 11.4902 27.9426 10.2363C27.9426 8.98228 28.8199 8.22989 30.282 8.18809V12.2426ZM44.2771 5.84732L39.3057 11.2394V6.01452H37.5511V14.667H38.136L43.1073 9.23308V14.4998H44.8619V5.84732H44.2771ZM52.8829 12.0336C52.8829 11.1558 52.4234 10.4453 51.6714 10.0691C52.2145 9.65107 52.507 9.02408 52.507 8.35529C52.507 6.80871 51.4208 5.88912 49.6662 5.88912C48.2458 5.88912 47.1596 6.55791 46.6165 7.7283L47.828 8.60608C48.2458 7.85369 48.8307 7.4775 49.5826 7.4775C50.3346 7.4775 50.7941 7.89549 50.7941 8.48069C50.7941 9.06588 50.3764 9.44207 49.6662 9.44207H48.6635V10.8633H49.7915C50.7106 10.8633 51.1701 11.2812 51.1701 11.9082C51.1701 12.6188 50.5017 13.0368 49.6244 13.0368C48.7471 13.0368 48.0369 12.6188 47.4938 11.7828L46.2823 12.6606C46.909 13.8728 48.1205 14.6252 49.6244 14.6252C51.6297 14.667 52.8829 13.622 52.8829 12.0336Z" fill="black"/>
<path d="M56.0995 14.5414H57.8541V7.6028H60.5695V6.01444H53.384V7.6028H56.0995V14.5414ZM61.6975 14.5414H67.5879V12.9531H63.4521V10.7795H66.3764V9.31655H63.4521V7.6028H67.4208V6.01444H61.6975V14.5414ZM75.8596 14.5414L73.0606 10.1943L75.6925 6.01444H73.729L72.0997 8.68957L70.4705 6.01444H68.4652L71.1389 10.1943L68.2981 14.5414H70.3034L72.0997 11.6991L73.8961 14.5414H75.8596ZM76.9875 14.5414H78.7421V7.6028H82.3766V14.5414H84.1312V6.01444H77.0293V14.5414H76.9875ZM91.5674 14.5414H93.4473L89.6457 5.88904H89.0608L85.2592 14.5414H87.1391L87.5987 13.4129H91.0661L91.5674 14.5414ZM90.4812 11.9917H88.2253L89.3533 9.10756L90.4812 11.9917ZM94.5753 14.5414H96.3299V11.5319H97.792C99.5884 11.5319 100.842 10.4033 100.842 8.77317C100.842 7.14301 99.5466 6.01444 97.792 6.01444H94.617V14.5414H94.5753ZM96.3299 9.98534V7.5192H97.792C98.5858 7.5192 99.0871 8.02079 99.0871 8.73137C99.0871 9.48375 98.6275 9.98534 97.792 9.98534H96.3299ZM109.74 14.5414L106.064 10.0271L109.322 6.01444H107.233L103.975 9.94354V6.01444H102.22V14.5414H103.975V10.1107L107.609 14.5414H109.74Z" fill="black"/>
</svg>
